<?xml version="1.0" encoding="utf-8"?>
<!-- Generator: Adobe Illustrator 19.1.0, SVG Export Plug-In . SVG Version: 6.00 Build 0)  -->
<svg version="1.1" id="Слой_1" xmlns="http://www.w3.org/2000/svg" xmlns:xlink="http://www.w3.org/1999/xlink" x="0px" y="0px"
	 viewBox="0 0 178 57.523" enable-background="new 0 0 178 57.523" xml:space="preserve">
<g>
	<g>
		<path fill="#ED1B2F" d="M39.27,56.485H28.602V37.367l-8.302,12.892h-1.331l-8.302-12.892v19.118H0V19.436h10.667l8.967,14.003
			l8.967-14.003H39.27V56.485z"/>
		<path fill="#ED1B2F" d="M88.336,19.436v37.049H77.22v-3.484c-2.445,2.818-6.074,4.522-11.04,4.522
			c-9.705,0-17.707-8.522-17.707-19.563c0-11.04,8.001-19.563,17.707-19.563c4.967,0,8.595,1.704,11.04,4.522v-3.483H88.336z
			 M77.22,37.96c0-5.556-3.704-9.04-8.815-9.04c-5.115,0-8.819,3.483-8.819,9.04c0,5.556,3.704,9.04,8.819,9.04
			C73.516,47,77.22,43.516,77.22,37.96z"/>
		<path fill="#ED1B2F" d="M178,56.485h-10.819V45.813h-2.297l-7.633,10.671h-12.596l8.667-12.227
			c-4.594-2.297-7.188-7.039-7.188-11.633c0-6.522,4.818-13.189,13.782-13.189H178V56.485z M156.954,32.994
			c0,2.297,1.555,3.632,3.928,3.632h6.298v-7.408h-6.298C158.51,29.217,156.954,30.624,156.954,32.994z"/>
		<g>
			<polygon fill="#ED1B2F" points="108.592,14.165 104.866,6.504 118.232,0 131.113,6.537 127.257,14.133 118.152,9.514 			"/>
		</g>
		<path fill="#ED1B2F" d="M135.402,19.436v37.049h-10.816V37.96l-15.858,18.524h-8.15V19.436h10.816V37.96l15.858-18.524H135.402z"
			/>
	</g>
</g>
</svg>
