<?xml version="1.0" encoding="utf-8"?>
<!-- Generator: Adobe Illustrator 19.1.0, SVG Export Plug-In . SVG Version: 6.00 Build 0)  -->
<svg version="1.1" id="Слой_1" xmlns="http://www.w3.org/2000/svg" xmlns:xlink="http://www.w3.org/1999/xlink" x="0px" y="0px"
	 viewBox="0 0 56 56" enable-background="new 0 0 56 56" xml:space="preserve">
<g>
	<circle fill="#FFEA75" cx="28" cy="28" r="28"/>
	<path fill="#212121" d="M38.843,37.113L32.65,30.92c1.156-1.531,1.789-3.397,1.789-5.301c0-4.863-3.957-8.819-8.82-8.819
		c-4.863,0-8.819,3.956-8.819,8.819c0,4.863,3.956,8.82,8.819,8.82c1.953,0,3.778-0.616,5.303-1.787l6.192,6.192
		c0.234,0.233,0.533,0.356,0.863,0.356c0.331,0,0.629-0.123,0.866-0.358C39.319,38.365,39.319,37.589,38.843,37.113z M31.993,25.619
		c0,3.515-2.86,6.375-6.375,6.375c-3.514,0-6.373-2.86-6.373-6.375c0-3.514,2.859-6.373,6.373-6.373
		C29.134,19.245,31.993,22.104,31.993,25.619z"/>
</g>
</svg>
