<?xml version="1.0" encoding="utf-8"?>
<!-- Generator: Adobe Illustrator 19.1.0, SVG Export Plug-In . SVG Version: 6.00 Build 0)  -->
<svg version="1.1" id="Слой_1" xmlns="http://www.w3.org/2000/svg" xmlns:xlink="http://www.w3.org/1999/xlink" x="0px" y="0px"
	 viewBox="0 0 62 12.621" enable-background="new 0 0 62 12.621" xml:space="preserve">
<g>
	<path fill="#ED1B2F" d="M41.81,12.613l0.001-3.912c0.04-1.885-1.043-3.19-2.751-3.189c-1.573,0.001-2.805,1.34-2.724,2.862
		c0.089,1.667,1.642,2.786,3.087,2.594c1.23-0.001,1.259,1.141,0.793,1.462c-0.596,0.41-4.12,0.413-5.264-2.627
		c-0.737-1.948,0.047-4.211,1.83-5.29c1.833-1.108,4.329-0.734,5.653,1.021c0.522,0.692,0.855,1.642,0.952,2.516
		c0.04,0.357,0.032,4.564,0.032,4.564H41.81z"/>
	<path fill="#ED1B2F" d="M13.117,6.705c-1.144-3.041-4.668-3.037-5.264-2.628c-0.466,0.32-0.437,1.462,0.793,1.461
		c1.445-0.192,2.998,0.927,3.087,2.594c0.081,1.522-1.151,2.861-2.724,2.862c-1.708,0.001-2.791-1.304-2.751-3.189l0.001-4.711
		h0.002l0-2.312c-0.003-0.11-0.048-0.219-0.117-0.327C5.85-0.006,5.165-0.01,4.837,0.427C4.746,0.548,4.682,0.673,4.671,0.801
		c0,0-0.006,0.675-0.012,1.624h-0.01c0,0-0.008,5.675,0.032,6.032c0.097,0.874,0.43,1.824,0.952,2.516
		c1.325,1.755,3.82,2.13,5.653,1.021C13.071,10.916,13.854,8.653,13.117,6.705z"/>
	<path fill="#ED1B2F" d="M44.811,4.177c1.266,0,2.471-0.073,3.664,0.019c1.433,0.11,2.759,1.356,2.832,2.738
		c0.098,1.864,0.024,3.737,0.024,5.672c-0.51,0-0.951,0-1.558,0c0-1.298,0-2.593,0-3.889c0-2.705-0.602-3.244-3.468-2.936
		c0,2.247,0,4.52,0,6.839c-0.583,0-0.998,0-1.494,0C44.811,9.858,44.811,7.082,44.811,4.177z"/>
	<path fill="#ED1B2F" d="M16.216,12.615c-0.576,0-1.051,0-1.566,0c0-1.648-0.137-3.277,0.035-4.873
		c0.208-1.929,2.019-3.501,3.797-3.564c0.627-0.022,1.312,0.033,1.333,0.839c0.02,0.743-0.571,0.814-1.204,0.826
		c-1.35,0.025-2.343,1.109-2.387,2.604C16.184,9.815,16.216,11.187,16.216,12.615z"/>
	<g>
		<path fill="#ED1B2F" d="M33.359,4.689c-0.003-0.11-0.048-0.219-0.118-0.327c-0.294-0.46-0.98-0.465-1.307-0.028
			c-0.091,0.122-0.155,0.246-0.166,0.374l0,7.905c0,0,1.053,0,1.59,0L33.359,4.689z"/>
	</g>
	<g>
		<path fill="#ED1B2F" d="M23.008,4.689c-0.003-0.11-0.048-0.219-0.117-0.327c-0.294-0.46-0.98-0.465-1.307-0.028
			c-0.091,0.122-0.155,0.246-0.166,0.374l0,7.905c0,0,1.053,0,1.59,0L23.008,4.689z"/>
	</g>
	<path fill="#ED1B2F" d="M57.106,11.079c-0.82,0.036-1.395-0.255-2.018-0.778c-0.608-0.594-0.964-1.485-0.942-2.522l0-2.146
		l2.021,0.001c0.11-0.003,0.219-0.048,0.327-0.117c0.46-0.294,0.465-0.98,0.028-1.307c-0.122-0.091-0.246-0.155-0.375-0.166
		c0,0-0.658-0.026-2.001-0.024l0.001-3.264c-0.003-0.11-0.048-0.219-0.118-0.327c-0.294-0.46-0.98-0.465-1.307-0.028
		c-0.091,0.122-0.155,0.246-0.166,0.374c0,0-0.062,6.995,0.012,7.656c0.097,0.874,0.43,1.824,0.952,2.516
		c0.844,1.118,2.162,1.673,3.482,1.644c0-0.005,0.62-0.038,0.791-0.156C58.26,12.115,58.161,11.102,57.106,11.079z"/>
	<path fill="#ED1B2F" d="M26.404,1.471c-0.003-0.11,0.03-0.839-0.118-1.061c-0.417-0.626-1.473-0.348-1.473-0.348l-0.002,12.552
		c0,0,1.054,0,1.591,0L26.404,1.471z"/>
	<path fill="#ED1B2F" d="M29.802,1.471c-0.003-0.11,0.031-0.839-0.117-1.061c-0.417-0.626-1.473-0.348-1.473-0.348L28.21,12.613
		c0,0,1.054,0,1.591,0L29.802,1.471z"/>
	<circle fill="#ED1B2F" cx="22.212" cy="2.496" r="0.808"/>
	<circle fill="#ED1B2F" cx="32.552" cy="2.496" r="0.808"/>
	<path fill="#ED1B2F" d="M3.021,6.54c0.101-0.46-0.314-0.881-0.78-0.814c-0.13,0.019-0.245,0.055-0.33,0.127
		c0,0-0.507,0.494-1.615,1.601c-0.379,0.379-0.401,0.751-0.024,1.128c0,0,0.001,0.001,0.002,0.001l1.654,1.654
		c0.069,0.065,0.163,0.104,0.271,0.128c0.46,0.101,0.881-0.314,0.814-0.78c-0.019-0.13-0.055-0.245-0.127-0.33
		c0,0-0.509-0.517-1.211-1.226l1.219-1.218C2.958,6.742,2.997,6.648,3.021,6.54z"/>
	<path fill="#ED1B2F" d="M58.979,9.559c-0.101,0.46,0.314,0.881,0.78,0.814c0.13-0.019,0.245-0.055,0.329-0.127
		c0,0,0.507-0.494,1.615-1.602c0.379-0.379,0.401-0.751,0.024-1.128c0,0-0.001-0.001-0.002-0.001l-1.654-1.654
		c-0.069-0.065-0.163-0.104-0.271-0.128c-0.46-0.101-0.881,0.314-0.814,0.78c0.019,0.13,0.055,0.245,0.127,0.33
		c0,0,0.509,0.516,1.211,1.226l-1.219,1.218C59.042,9.357,59.003,9.451,58.979,9.559z"/>
</g>
</svg>
