<?xml version="1.0" encoding="utf-8"?>
<!-- Generator: Adobe Illustrator 19.1.0, SVG Export Plug-In . SVG Version: 6.00 Build 0)  -->
<svg version="1.1" id="Слой_1" xmlns="http://www.w3.org/2000/svg" xmlns:xlink="http://www.w3.org/1999/xlink" x="0px" y="0px"
	 viewBox="0 0 88.501 94.904" enable-background="new 0 0 88.501 94.904" xml:space="preserve">
<g>
	<g>
		<linearGradient id="SVGID_1_" gradientUnits="userSpaceOnUse" x1="21.7556" y1="57.4662" x2="21.7556" y2="82.564">
			<stop  offset="0" style="stop-color:#D1AE6C"/>
			<stop  offset="1" style="stop-color:#B4955B"/>
		</linearGradient>
		<path fill="url(#SVGID_1_)" d="M14.698,82.564c-0.178,0-0.357-0.047-0.52-0.147c-0.472-0.288-0.62-0.903-0.332-1.375l2.086-3.413
			c0.288-0.472,0.903-0.62,1.375-0.332c0.472,0.288,0.62,0.903,0.332,1.375l-2.086,3.413C15.364,82.394,15.035,82.564,14.698,82.564
			z M18.87,75.738c-0.178,0-0.357-0.047-0.521-0.146c-0.471-0.288-0.62-0.903-0.332-1.375l2.085-3.413
			c0.288-0.471,0.903-0.618,1.375-0.332c0.471,0.288,0.62,0.903,0.332,1.375l-2.085,3.414C19.536,75.568,19.206,75.738,18.87,75.738
			z M23.04,68.911c-0.178,0-0.357-0.047-0.521-0.147c-0.472-0.288-0.62-0.903-0.332-1.374l2.086-3.413
			c0.288-0.471,0.902-0.62,1.375-0.332c0.472,0.288,0.62,0.903,0.332,1.375l-2.086,3.413C23.706,68.741,23.377,68.911,23.04,68.911z
			 M27.212,62.085c-0.178,0-0.358-0.047-0.521-0.146c-0.471-0.288-0.62-0.903-0.332-1.375l1.6-2.619
			c0.288-0.471,0.902-0.62,1.375-0.332c0.471,0.288,0.62,0.903,0.332,1.375l-1.6,2.619C27.878,61.915,27.549,62.085,27.212,62.085z"
			/>
	</g>
	<g>
		<linearGradient id="SVGID_2_" gradientUnits="userSpaceOnUse" x1="66.7451" y1="57.4662" x2="66.7451" y2="82.564">
			<stop  offset="0" style="stop-color:#D1AE6C"/>
			<stop  offset="1" style="stop-color:#B4955B"/>
		</linearGradient>
		<path fill="url(#SVGID_2_)" d="M73.803,82.564c-0.337,0-0.666-0.17-0.855-0.478l-2.086-3.413c-0.288-0.471-0.14-1.087,0.332-1.375
			c0.472-0.289,1.087-0.14,1.375,0.332l2.086,3.413c0.288,0.471,0.14,1.087-0.332,1.375C74.16,82.517,73.981,82.564,73.803,82.564z
			 M69.631,75.738c-0.337,0-0.666-0.17-0.854-0.479l-2.085-3.414c-0.288-0.472-0.139-1.087,0.332-1.375
			c0.472-0.286,1.087-0.139,1.375,0.332l2.085,3.413c0.288,0.472,0.139,1.087-0.332,1.375C69.989,75.69,69.809,75.738,69.631,75.738
			z M65.46,68.911c-0.337,0-0.666-0.17-0.854-0.479L62.52,65.02c-0.288-0.471-0.14-1.087,0.332-1.375
			c0.472-0.288,1.087-0.14,1.375,0.332l2.086,3.413c0.288,0.471,0.14,1.087-0.332,1.374C65.818,68.864,65.638,68.911,65.46,68.911z
			 M61.288,62.085c-0.337,0-0.666-0.17-0.854-0.479l-1.6-2.619c-0.288-0.472-0.139-1.087,0.332-1.375
			c0.473-0.288,1.087-0.139,1.375,0.332l1.6,2.619c0.288,0.472,0.139,1.087-0.332,1.375C61.646,62.038,61.466,62.085,61.288,62.085z
			"/>
	</g>
	<g>
		<linearGradient id="SVGID_3_" gradientUnits="userSpaceOnUse" x1="21.1891" y1="47.8524" x2="21.1891" y2="94.9043">
			<stop  offset="0" style="stop-color:#D1AE6C"/>
			<stop  offset="1" style="stop-color:#B4955B"/>
		</linearGradient>
		<path fill="url(#SVGID_3_)" d="M20.9,94.904l-6.802-12.357L0,82.133l20.621-33.802c0.288-0.471,0.905-0.621,1.374-0.333
			c0.472,0.288,0.621,0.903,0.333,1.375L3.5,80.235l11.799,0.346l5.69,10.34l19.534-31.956c0.288-0.472,0.903-0.62,1.375-0.332
			c0.472,0.288,0.62,0.903,0.332,1.375L20.9,94.904z"/>
	</g>
	<g>
		<linearGradient id="SVGID_4_" gradientUnits="userSpaceOnUse" x1="67.3117" y1="47.8524" x2="67.3117" y2="94.9043">
			<stop  offset="0" style="stop-color:#D1AE6C"/>
			<stop  offset="1" style="stop-color:#B4955B"/>
		</linearGradient>
		<path fill="url(#SVGID_4_)" d="M67.601,94.904L46.27,60.008c-0.288-0.471-0.14-1.086,0.332-1.375
			c0.472-0.289,1.087-0.14,1.375,0.332l19.534,31.956l5.69-10.34L85,80.235L66.172,49.374c-0.288-0.472-0.139-1.087,0.333-1.375
			c0.469-0.288,1.086-0.139,1.374,0.333L88.5,82.133l-14.098,0.414L67.601,94.904z"/>
	</g>
	<g>
		<linearGradient id="SVGID_5_" gradientUnits="userSpaceOnUse" x1="44.2504" y1="12.8535" x2="44.2504" y2="49.5591">
			<stop  offset="0" style="stop-color:#D1AE6C"/>
			<stop  offset="1" style="stop-color:#B4955B"/>
		</linearGradient>
		<path fill="url(#SVGID_5_)" d="M44.25,49.559c-10.119,0-18.353-8.233-18.353-18.353c0-10.12,8.233-18.353,18.353-18.353
			c10.119,0,18.352,8.233,18.352,18.353C62.603,41.326,54.369,49.559,44.25,49.559z M44.25,14.854
			c-9.017,0-16.353,7.336-16.353,16.353c0,9.017,7.336,16.353,16.353,16.353c9.017,0,16.353-7.336,16.353-16.353
			C60.603,22.19,53.267,14.854,44.25,14.854z"/>
	</g>
	<g>
		<linearGradient id="SVGID_6_" gradientUnits="userSpaceOnUse" x1="44.2502" y1="25.1581" x2="44.2502" y2="39.126">
			<stop  offset="0" style="stop-color:#D1AE6C"/>
			<stop  offset="1" style="stop-color:#B4955B"/>
		</linearGradient>
		<path fill="url(#SVGID_6_)" d="M41.691,39.126l-6.469-5.895c-0.408-0.372-0.438-1.005-0.065-1.413
			c0.372-0.409,1.004-0.437,1.413-0.065l5.02,4.575l10.29-10.857c0.379-0.401,1.013-0.418,1.413-0.038
			c0.401,0.38,0.418,1.013,0.038,1.414L41.691,39.126z"/>
	</g>
	<g>
		<linearGradient id="SVGID_7_" gradientUnits="userSpaceOnUse" x1="44.2504" y1="-0.0036" x2="44.2504" y2="62.416">
			<stop  offset="0" style="stop-color:#D1AE6C"/>
			<stop  offset="1" style="stop-color:#B4955B"/>
		</linearGradient>
		<path fill="url(#SVGID_7_)" d="M53.111,62.416c-1.706,0-3.399-0.453-4.93-1.348c-2.424-1.419-5.438-1.419-7.861,0
			c-2.665,1.559-5.832,1.774-8.686,0.594c-2.853-1.182-4.938-3.573-5.721-6.561c-0.711-2.718-2.841-4.848-5.558-5.559
			c-2.988-0.782-5.38-2.868-6.561-5.721c-1.183-2.854-0.966-6.019,0.594-8.684c1.419-2.425,1.419-5.437,0-7.862
			c-1.559-2.666-1.776-5.831-0.594-8.684c1.182-2.854,3.573-4.939,6.561-5.721c2.717-0.711,4.847-2.841,5.558-5.559
			c0.782-2.988,2.868-5.379,5.721-6.561c2.856-1.182,6.019-0.965,8.686,0.594c2.424,1.419,5.438,1.419,7.861,0l0,0
			c2.665-1.56,5.83-1.776,8.686-0.594c2.853,1.182,4.938,3.573,5.721,6.561c0.711,2.718,2.841,4.848,5.558,5.559
			c2.988,0.782,5.38,2.868,6.562,5.721c1.183,2.854,0.966,6.019-0.594,8.684c-1.419,2.425-1.419,5.437,0,7.862
			c1.559,2.666,1.776,5.831,0.594,8.684c-1.182,2.854-3.573,4.939-6.562,5.721c-2.717,0.711-4.847,2.841-5.558,5.559
			c-0.782,2.988-2.868,5.379-5.721,6.561C55.65,62.166,54.377,62.416,53.111,62.416z M44.25,58.005c1.708,0,3.417,0.446,4.94,1.337
			c2.12,1.24,4.64,1.413,6.91,0.473c2.27-0.94,3.929-2.843,4.551-5.22c0.895-3.416,3.571-6.093,6.987-6.987
			c2.377-0.622,4.279-2.282,5.22-4.552c0.941-2.27,0.769-4.788-0.473-6.909c-1.783-3.047-1.783-6.834,0-9.881
			c1.241-2.121,1.413-4.639,0.473-6.909c-0.94-2.271-2.843-3.93-5.22-4.552c-3.416-0.894-6.093-3.571-6.987-6.987
			c-0.622-2.377-2.281-4.28-4.551-5.22c-2.271-0.941-4.79-0.77-6.91,0.473l0,0c-3.047,1.782-6.834,1.782-9.881,0
			c-2.121-1.241-4.64-1.413-6.91-0.473c-2.27,0.94-3.929,2.843-4.551,5.22c-0.895,3.416-3.571,6.093-6.987,6.987
			c-2.377,0.623-4.279,2.282-5.22,4.552c-0.941,2.27-0.769,4.788,0.473,6.909c1.783,3.047,1.783,6.834,0,9.881
			c-1.241,2.121-1.413,4.639-0.473,6.909c0.94,2.271,2.843,3.93,5.22,4.552c3.416,0.894,6.093,3.571,6.987,6.987
			c0.622,2.377,2.281,4.28,4.551,5.22c2.271,0.94,4.789,0.769,6.91-0.473C40.833,58.451,42.542,58.005,44.25,58.005z"/>
	</g>
</g>
</svg>
