<?xml version="1.0" encoding="utf-8"?>
<!-- Generator: Adobe Illustrator 19.1.0, SVG Export Plug-In . SVG Version: 6.00 Build 0)  -->
<svg version="1.1" id="Слой_1" xmlns="http://www.w3.org/2000/svg" xmlns:xlink="http://www.w3.org/1999/xlink" x="0px" y="0px"
	 viewBox="0 0 75.461 47.088" enable-background="new 0 0 75.461 47.088" xml:space="preserve">
<g id="XMLID_786_">
	<linearGradient id="XMLID_2_" gradientUnits="userSpaceOnUse" x1="29.6685" y1="6.186428e-007" x2="29.6685" y2="12.793">
		<stop  offset="0" style="stop-color:#D1AE6C"/>
		<stop  offset="1" style="stop-color:#B4955B"/>
	</linearGradient>
	<rect id="XMLID_783_" x="23.455" y="0" fill="url(#XMLID_2_)" width="12.427" height="12.793"/>
	<linearGradient id="XMLID_3_" gradientUnits="userSpaceOnUse" x1="43.5948" y1="6.186438e-007" x2="43.5948" y2="12.793">
		<stop  offset="0" style="stop-color:#D1AE6C"/>
		<stop  offset="1" style="stop-color:#B4955B"/>
	</linearGradient>
	<rect id="XMLID_843_" x="37.382" y="0" fill="url(#XMLID_3_)" width="12.426" height="12.793"/>
	<linearGradient id="XMLID_4_" gradientUnits="userSpaceOnUse" x1="16.8414" y1="6.186920e-007" x2="16.8414" y2="47.0879">
		<stop  offset="0" style="stop-color:#D1AE6C"/>
		<stop  offset="1" style="stop-color:#B4955B"/>
	</linearGradient>
	<path id="XMLID_926_" fill="url(#XMLID_4_)" d="M11.728,25.299v4.765v17.024h10.227V0H11.728V25.299z M13.526,20.901
		c0-0.414,0.336-0.75,0.75-0.75c0.414,0,0.75,0.336,0.75,0.75v4.765c0,0.414-0.336,0.75-0.75,0.75c-0.414,0-0.75-0.336-0.75-0.75
		V20.901z"/>
	<linearGradient id="XMLID_5_" gradientUnits="userSpaceOnUse" x1="54.0391" y1="37.5938" x2="54.0391" y2="47.0879">
		<stop  offset="0" style="stop-color:#D1AE6C"/>
		<stop  offset="1" style="stop-color:#B4955B"/>
	</linearGradient>
	<rect id="XMLID_927_" x="44.345" y="37.594" fill="url(#XMLID_5_)" width="19.389" height="9.494"/>
	<linearGradient id="XMLID_6_" gradientUnits="userSpaceOnUse" x1="33.15" y1="37.5938" x2="33.15" y2="47.0879">
		<stop  offset="0" style="stop-color:#D1AE6C"/>
		<stop  offset="1" style="stop-color:#B4955B"/>
	</linearGradient>
	<rect id="XMLID_928_" x="23.455" y="37.594" fill="url(#XMLID_6_)" width="19.39" height="9.494"/>
	<linearGradient id="XMLID_7_" gradientUnits="userSpaceOnUse" x1="5.1138" y1="6.187583e-007" x2="5.1138" y2="47.0879">
		<stop  offset="0" style="stop-color:#D1AE6C"/>
		<stop  offset="1" style="stop-color:#B4955B"/>
	</linearGradient>
	<path id="XMLID_931_" fill="url(#XMLID_7_)" d="M0,1.478v45.61h10.228V30.063v-4.765V0h-8.75C0.663,0,0,0.663,0,1.478z
		 M6.93,20.901c0-0.414,0.336-0.75,0.75-0.75c0.414,0,0.75,0.336,0.75,0.75v4.765c0,0.414-0.336,0.75-0.75,0.75
		c-0.414,0-0.75-0.336-0.75-0.75V20.901z"/>
	<linearGradient id="XMLID_8_" gradientUnits="userSpaceOnUse" x1="43.5942" y1="34.2949" x2="43.5942" y2="36.0938">
		<stop  offset="0" style="stop-color:#D1AE6C"/>
		<stop  offset="1" style="stop-color:#B4955B"/>
	</linearGradient>
	<rect id="XMLID_932_" x="23.455" y="34.295" fill="url(#XMLID_8_)" width="40.278" height="1.799"/>
	<linearGradient id="XMLID_9_" gradientUnits="userSpaceOnUse" x1="70.3472" y1="24.294" x2="70.3472" y2="47.0879">
		<stop  offset="0" style="stop-color:#D1AE6C"/>
		<stop  offset="1" style="stop-color:#B4955B"/>
	</linearGradient>
	<rect id="XMLID_949_" x="65.233" y="24.294" fill="url(#XMLID_9_)" width="10.228" height="22.794"/>
	<linearGradient id="XMLID_10_" gradientUnits="userSpaceOnUse" x1="57.5205" y1="6.186428e-007" x2="57.5205" y2="12.793">
		<stop  offset="0" style="stop-color:#D1AE6C"/>
		<stop  offset="1" style="stop-color:#B4955B"/>
	</linearGradient>
	<rect id="XMLID_950_" x="51.308" y="0" fill="url(#XMLID_10_)" width="12.426" height="12.793"/>
	<linearGradient id="XMLID_11_" gradientUnits="userSpaceOnUse" x1="43.5942" y1="14.293" x2="43.5942" y2="32.7949">
		<stop  offset="0" style="stop-color:#D1AE6C"/>
		<stop  offset="1" style="stop-color:#B4955B"/>
	</linearGradient>
	<rect id="XMLID_951_" x="23.455" y="14.293" fill="url(#XMLID_11_)" width="40.278" height="18.502"/>
	<linearGradient id="XMLID_12_" gradientUnits="userSpaceOnUse" x1="70.3472" y1="6.186929e-007" x2="70.3472" y2="22.794">
		<stop  offset="0" style="stop-color:#D1AE6C"/>
		<stop  offset="1" style="stop-color:#B4955B"/>
	</linearGradient>
	<path id="XMLID_952_" fill="url(#XMLID_12_)" d="M73.983,0h-8.75v22.794h10.228V1.478C75.461,0.663,74.798,0,73.983,0z"/>
</g>
</svg>
