<?xml version="1.0" encoding="utf-8"?>
<!-- Generator: Adobe Illustrator 19.1.0, SVG Export Plug-In . SVG Version: 6.00 Build 0)  -->
<svg version="1.1" id="Слой_1" xmlns="http://www.w3.org/2000/svg" xmlns:xlink="http://www.w3.org/1999/xlink" x="0px" y="0px"
	 viewBox="0 0 16.813 28" enable-background="new 0 0 16.813 28" xml:space="preserve">
<g>
	<g>
		<path fill="#AAAAAA" d="M7.028,19.722c-2.171-0.226-4.128-0.761-5.803-2.071c-0.208-0.163-0.423-0.32-0.612-0.502
			c-0.733-0.704-0.807-1.511-0.227-2.342c0.496-0.712,1.33-0.902,2.196-0.493c0.168,0.079,0.328,0.178,0.481,0.284
			c3.123,2.146,7.413,2.205,10.547,0.097c0.311-0.238,0.642-0.432,1.027-0.531c0.748-0.192,1.446,0.083,1.847,0.737
			c0.459,0.747,0.453,1.477-0.112,2.057c-0.867,0.89-1.909,1.533-3.068,1.983c-1.095,0.425-2.295,0.638-3.482,0.78
			c0.179,0.195,0.264,0.291,0.376,0.404c1.612,1.62,3.232,3.233,4.839,4.858c0.547,0.554,0.662,1.24,0.36,1.884
			c-0.33,0.704-1.068,1.167-1.791,1.117c-0.458-0.032-0.816-0.26-1.133-0.58c-1.217-1.224-2.456-2.426-3.648-3.674
			c-0.347-0.363-0.514-0.294-0.82,0.021c-1.224,1.26-2.468,2.501-3.719,3.735c-0.562,0.554-1.23,0.654-1.882,0.337
			c-0.693-0.336-1.133-1.043-1.099-1.753c0.023-0.481,0.26-0.848,0.59-1.177c1.596-1.593,3.187-3.191,4.779-4.786
			C6.777,19.999,6.875,19.886,7.028,19.722z"/>
		<path fill="#AAAAAA" d="M8.351,14.172c-3.872-0.013-7.048-3.223-7.025-7.102c0.022-3.921,3.2-7.081,7.11-7.07
			c3.918,0.011,7.063,3.216,7.044,7.178C15.459,11.049,12.262,14.186,8.351,14.172z M11.87,7.08
			c-0.007-1.926-1.54-3.459-3.462-3.461C6.469,3.617,4.922,5.178,4.937,7.122c0.014,1.918,1.561,3.441,3.488,3.434
			C10.347,10.548,11.876,9.005,11.87,7.08z"/>
	</g>
</g>
</svg>
