<?xml version="1.0" encoding="utf-8"?>
<!-- Generator: Adobe Illustrator 19.1.0, SVG Export Plug-In . SVG Version: 6.00 Build 0)  -->
<svg version="1.1" id="Слой_1" xmlns="http://www.w3.org/2000/svg" xmlns:xlink="http://www.w3.org/1999/xlink" x="0px" y="0px"
	 viewBox="0 0 74.18 44.5" enable-background="new 0 0 74.18 44.5" xml:space="preserve">
<g id="XMLID_792_">
	<linearGradient id="XMLID_2_" gradientUnits="userSpaceOnUse" x1="4.2427" y1="17.4258" x2="4.2427" y2="44.5">
		<stop  offset="0" style="stop-color:#D1AE6C"/>
		<stop  offset="1" style="stop-color:#B4955B"/>
	</linearGradient>
	<path id="XMLID_844_" fill="url(#XMLID_2_)" d="M4.155,30.191v-1.736c0-2.233,1.816-4.05,4.049-4.05h0.281v-4.429
		c0-1.406-1.143-2.55-2.549-2.55H2.55c-1.406,0-2.55,1.144-2.55,2.55v21.976C0,43.356,1.143,44.5,2.55,44.5h5.936V34.24H8.204
		C5.972,34.24,4.155,32.424,4.155,30.191z"/>
	<linearGradient id="XMLID_3_" gradientUnits="userSpaceOnUse" x1="21.8222" y1="5.678567e-007" x2="21.8222" y2="24.4043">
		<stop  offset="0" style="stop-color:#D1AE6C"/>
		<stop  offset="1" style="stop-color:#B4955B"/>
	</linearGradient>
	<path id="XMLID_996_" fill="url(#XMLID_3_)" d="M9.985,19.976v4.429H36.34V2.55V2.463C36.34,1.105,35.235,0,33.877,0H9.767
		C8.409,0,7.305,1.105,7.305,2.463V16.18C8.863,16.744,9.985,18.225,9.985,19.976z M25.586,16.223c-0.293-0.293-0.293-0.768,0-1.061
		c0.293-0.293,0.768-0.293,1.061,0l1.076,1.076l1.076-1.076c0.293-0.293,0.768-0.293,1.061,0c0.293,0.293,0.293,0.768,0,1.061
		l-1.076,1.076l1.076,1.076c0.293,0.293,0.293,0.768,0,1.061c-0.147,0.147-0.338,0.22-0.53,0.22c-0.192,0-0.384-0.073-0.53-0.22
		l-1.076-1.076l-1.076,1.076c-0.146,0.147-0.338,0.22-0.53,0.22c-0.192,0-0.384-0.073-0.53-0.22c-0.293-0.293-0.293-0.768,0-1.061
		l1.076-1.076L25.586,16.223z M14.365,6.857c-0.293-0.293-0.293-0.768,0-1.061c0.293-0.293,0.768-0.293,1.061,0l1.076,1.076
		l1.076-1.076c0.293-0.293,0.768-0.293,1.06,0c0.293,0.293,0.293,0.768,0,1.061l-1.076,1.076l1.076,1.076
		c0.293,0.293,0.293,0.768,0,1.061c-0.146,0.146-0.338,0.22-0.53,0.22c-0.192,0-0.384-0.073-0.53-0.22l-1.076-1.076l-1.076,1.076
		c-0.146,0.146-0.338,0.22-0.53,0.22c-0.192,0-0.384-0.073-0.53-0.22c-0.293-0.293-0.293-0.768,0-1.061l1.076-1.076L14.365,6.857z"
		/>
	<linearGradient id="XMLID_4_" gradientUnits="userSpaceOnUse" x1="52.3574" y1="5.678612e-007" x2="52.3574" y2="24.4043">
		<stop  offset="0" style="stop-color:#D1AE6C"/>
		<stop  offset="1" style="stop-color:#B4955B"/>
	</linearGradient>
	<path id="XMLID_1036_" fill="url(#XMLID_4_)" d="M64.194,19.976c0-1.751,1.123-3.231,2.681-3.795V2.463
		C66.875,1.105,65.771,0,64.412,0H40.39c-1.406,0-2.55,1.144-2.55,2.55v21.854h26.354V19.976z M48.594,18.375
		c0.293,0.293,0.293,0.768,0,1.061c-0.146,0.147-0.338,0.22-0.53,0.22c-0.192,0-0.384-0.073-0.53-0.22l-1.076-1.076l-1.076,1.076
		c-0.146,0.147-0.338,0.22-0.53,0.22c-0.192,0-0.384-0.073-0.53-0.22c-0.293-0.293-0.293-0.768,0-1.061l1.076-1.076l-1.076-1.076
		c-0.293-0.293-0.293-0.768,0-1.061c0.293-0.293,0.767-0.293,1.06,0l1.076,1.076l1.076-1.076c0.293-0.293,0.768-0.293,1.061,0
		c0.293,0.293,0.293,0.768,0,1.061l-1.076,1.076L48.594,18.375z M59.814,9.009c0.293,0.293,0.293,0.768,0,1.061
		c-0.146,0.146-0.338,0.22-0.53,0.22c-0.192,0-0.384-0.073-0.53-0.22l-1.076-1.076l-1.076,1.076c-0.146,0.146-0.338,0.22-0.53,0.22
		c-0.192,0-0.384-0.073-0.53-0.22c-0.293-0.293-0.293-0.768,0-1.061l1.076-1.076l-1.076-1.076c-0.293-0.293-0.293-0.768,0-1.061
		c0.293-0.293,0.767-0.293,1.061,0l1.076,1.076l1.076-1.076c0.293-0.293,0.768-0.293,1.061,0c0.293,0.293,0.293,0.768,0,1.061
		l-1.076,1.076L59.814,9.009z"/>
	<linearGradient id="XMLID_5_" gradientUnits="userSpaceOnUse" x1="69.937" y1="17.4258" x2="69.937" y2="44.5">
		<stop  offset="0" style="stop-color:#D1AE6C"/>
		<stop  offset="1" style="stop-color:#B4955B"/>
	</linearGradient>
	<path id="XMLID_1038_" fill="url(#XMLID_5_)" d="M71.63,17.426h-3.387c-1.405,0-2.549,1.144-2.549,2.55v4.429h0.281
		c2.232,0,4.049,1.816,4.049,4.05v1.736c0,2.233-1.816,4.05-4.049,4.05h-0.281V44.5h5.936c1.406,0,2.55-1.144,2.55-2.549V19.976
		C74.18,18.569,73.036,17.426,71.63,17.426z"/>
	<linearGradient id="XMLID_6_" gradientUnits="userSpaceOnUse" x1="53.1821" y1="25.9043" x2="53.1821" y2="32.7403">
		<stop  offset="0" style="stop-color:#D1AE6C"/>
		<stop  offset="1" style="stop-color:#B4955B"/>
	</linearGradient>
	<path id="XMLID_1046_" fill="url(#XMLID_6_)" d="M68.524,30.191v-1.736c0-1.406-1.144-2.55-2.549-2.55H37.84v6.836h28.136
		C67.381,32.74,68.524,31.597,68.524,30.191z"/>
	<linearGradient id="XMLID_7_" gradientUnits="userSpaceOnUse" x1="37.0898" y1="34.2403" x2="37.0898" y2="44.5">
		<stop  offset="0" style="stop-color:#D1AE6C"/>
		<stop  offset="1" style="stop-color:#B4955B"/>
	</linearGradient>
	<polygon id="XMLID_1047_" fill="url(#XMLID_7_)" points="36.34,34.24 9.985,34.24 9.985,44.5 64.194,44.5 64.194,34.24 
		37.84,34.24 	"/>
	<linearGradient id="XMLID_8_" gradientUnits="userSpaceOnUse" x1="20.9975" y1="25.9043" x2="20.9975" y2="32.7403">
		<stop  offset="0" style="stop-color:#D1AE6C"/>
		<stop  offset="1" style="stop-color:#B4955B"/>
	</linearGradient>
	<path id="XMLID_1067_" fill="url(#XMLID_8_)" d="M36.34,25.904H8.204c-1.405,0-2.549,1.144-2.549,2.55v1.736
		c0,1.406,1.144,2.55,2.549,2.55H36.34V25.904z"/>
</g>
</svg>
