<?xml version="1.0" encoding="utf-8"?>
<!-- Generator: Adobe Illustrator 19.1.0, SVG Export Plug-In . SVG Version: 6.00 Build 0)  -->
<svg version="1.1" id="Слой_1" xmlns="http://www.w3.org/2000/svg" xmlns:xlink="http://www.w3.org/1999/xlink" x="0px" y="0px"
	 viewBox="0 0 19.5 24.854" enable-background="new 0 0 19.5 24.854" xml:space="preserve">
<path fill="none" stroke="#AAAAAA" stroke-width="1.5" stroke-miterlimit="10" d="M0.75,9.75c0-4.971,4.029-9,9-9
	c4.97,0,9,4.029,9,9c0,4.324-6.811,12.193-8.583,14.167c-0.224,0.25-0.61,0.25-0.834,0C7.561,21.943,0.75,14.074,0.75,9.75z"/>
<path fill="none" stroke="#AAAAAA" stroke-width="1.5" stroke-linecap="round" stroke-miterlimit="10" d="M7.769,6.346
	C8.351,6.007,9.028,5.813,9.75,5.813c2.175,0,3.938,1.763,3.938,3.938c0,2.175-1.763,3.938-3.938,3.938
	c-2.175,0-3.938-1.763-3.938-3.938c0-0.363,0.049-0.715,0.141-1.049"/>
</svg>
