<?xml version="1.0" encoding="utf-8"?>
<!-- Generator: Adobe Illustrator 19.1.0, SVG Export Plug-In . SVG Version: 6.00 Build 0)  -->
<svg version="1.1" id="Слой_1" xmlns="http://www.w3.org/2000/svg" xmlns:xlink="http://www.w3.org/1999/xlink" x="0px" y="0px"
	 viewBox="0 0 78.461 50.088" enable-background="new 0 0 78.461 50.088" xml:space="preserve">
<g id="XMLID_548_">
	<path id="XMLID_563_" fill="none" stroke="#4C3939" stroke-width="1.5" stroke-miterlimit="10" d="M24.205,49.338H12.477H0.75
		V25.044V2.977c0-1.23,0.997-2.227,2.227-2.227h9.5h11.727v24.294V49.338z"/>
	<path id="XMLID_562_" fill="none" stroke="#4C3939" stroke-width="1.5" stroke-miterlimit="10" d="M77.71,49.338h-5.864h-5.864
		V25.044V0.75h5.864h3.636c1.23,0,2.227,0.997,2.227,2.227v22.067V49.338z"/>
	
		<line id="XMLID_561_" fill="none" stroke="#4C3939" stroke-width="1.5" stroke-miterlimit="10" x1="24.205" y1="0.75" x2="65.983" y2="0.75"/>
	
		<line id="XMLID_560_" fill="none" stroke="#4C3939" stroke-width="1.5" stroke-miterlimit="10" x1="38.131" y1="0.75" x2="38.131" y2="15.043"/>
	
		<line id="XMLID_559_" fill="none" stroke="#4C3939" stroke-width="1.5" stroke-miterlimit="10" x1="52.057" y1="0.75" x2="52.057" y2="15.043"/>
	
		<line id="XMLID_558_" fill="none" stroke="#4C3939" stroke-width="1.5" stroke-miterlimit="10" x1="24.205" y1="15.043" x2="65.983" y2="15.043"/>
	
		<line id="XMLID_557_" fill="none" stroke="#4C3939" stroke-width="1.5" stroke-miterlimit="10" x1="24.205" y1="49.338" x2="65.983" y2="49.338"/>
	
		<line id="XMLID_556_" fill="none" stroke="#4C3939" stroke-width="1.5" stroke-miterlimit="10" x1="24.205" y1="35.045" x2="65.983" y2="35.045"/>
	<polyline id="XMLID_555_" fill="none" stroke="#4C3939" stroke-width="1.5" stroke-miterlimit="10" points="24.205,38.343 
		45.094,38.343 65.983,38.343 	"/>
	
		<line id="XMLID_554_" fill="none" stroke="#4C3939" stroke-width="1.5" stroke-miterlimit="10" x1="45.094" y1="38.343" x2="45.094" y2="49.75"/>
	
		<line id="XMLID_553_" fill="none" stroke="#4C3939" stroke-width="1.5" stroke-miterlimit="10" x1="12.477" y1="0.75" x2="12.477" y2="49.338"/>
	
		<line id="XMLID_552_" fill="none" stroke="#4C3939" stroke-width="1.5" stroke-linecap="round" stroke-miterlimit="10" x1="15.776" y1="22.402" x2="15.776" y2="27.166"/>
	
		<line id="XMLID_551_" fill="none" stroke="#4C3939" stroke-width="1.5" stroke-linecap="round" stroke-miterlimit="10" x1="9.179" y1="22.402" x2="9.179" y2="27.166"/>
	
		<line id="XMLID_550_" fill="none" stroke="#4C3939" stroke-width="1.5" stroke-linecap="round" stroke-miterlimit="10" x1="12.477" y1="26.799" x2="12.477" y2="31.563"/>
	
		<line id="XMLID_549_" fill="none" stroke="#4C3939" stroke-width="1.5" stroke-miterlimit="10" x1="65.983" y1="25.044" x2="77.71" y2="25.044"/>
</g>
</svg>
