<?xml version="1.0" encoding="utf-8"?>
<!-- Generator: Adobe Illustrator 19.1.0, SVG Export Plug-In . SVG Version: 6.00 Build 0)  -->
<svg version="1.1" id="Слой_1" xmlns="http://www.w3.org/2000/svg" xmlns:xlink="http://www.w3.org/1999/xlink" x="0px" y="0px"
	 viewBox="0 0 67.98 50.173" enable-background="new 0 0 67.98 50.173" xml:space="preserve">
<g>
	<g>
		<g>
			<polygon id="XMLID_547_" fill="none" stroke="#4C3939" stroke-width="1.5" stroke-miterlimit="10" points="67.23,49.423 
				61.405,49.423 55.581,49.423 55.581,24.882 55.581,0.75 61.405,0.75 67.23,0.75 67.23,24.882 			"/>
		</g>
		
			<line id="XMLID_546_" fill="none" stroke="#4C3939" stroke-width="1.5" stroke-linecap="round" stroke-miterlimit="10" x1="58.857" y1="22.523" x2="58.857" y2="27.255"/>
	</g>
	<g>
		
			<rect id="XMLID_545_" x="0.75" y="28.284" fill="none" stroke="#4C3939" stroke-width="1.5" stroke-linecap="round" stroke-linejoin="round" stroke-miterlimit="10" width="18.791" height="21.139"/>
		
			<line id="XMLID_544_" fill="none" stroke="#4C3939" stroke-width="1.5" stroke-linecap="round" stroke-miterlimit="10" x1="0.75" y1="33.634" x2="19.541" y2="33.634"/>
		
			<line id="XMLID_543_" fill="none" stroke="#4C3939" stroke-width="1.5" stroke-linecap="round" stroke-miterlimit="10" x1="8.188" y1="36.505" x2="12.103" y2="36.505"/>
		
			<rect id="XMLID_542_" x="19.541" y="28.284" fill="none" stroke="#4C3939" stroke-width="1.5" stroke-linecap="round" stroke-linejoin="round" stroke-miterlimit="10" width="18.791" height="21.139"/>
		
			<line id="XMLID_541_" fill="none" stroke="#4C3939" stroke-width="1.5" stroke-linecap="round" stroke-miterlimit="10" x1="38.331" y1="33.634" x2="19.541" y2="33.634"/>
		
			<line id="XMLID_540_" fill="none" stroke="#4C3939" stroke-width="1.5" stroke-linecap="round" stroke-miterlimit="10" x1="30.893" y1="36.505" x2="26.979" y2="36.505"/>
		
			<rect id="XMLID_539_" x="19.541" y="0.75" fill="none" stroke="#4C3939" stroke-width="1.5" stroke-linecap="round" stroke-linejoin="round" stroke-miterlimit="10" width="18.791" height="15.789"/>
		
			<line id="XMLID_538_" fill="none" stroke="#4C3939" stroke-width="1.5" stroke-linecap="round" stroke-miterlimit="10" x1="30.893" y1="13.669" x2="26.979" y2="13.669"/>
		
			<rect id="XMLID_537_" x="0.75" y="0.75" fill="none" stroke="#4C3939" stroke-width="1.5" stroke-linecap="round" stroke-linejoin="round" stroke-miterlimit="10" width="18.791" height="15.789"/>
		
			<line id="XMLID_536_" fill="none" stroke="#4C3939" stroke-width="1.5" stroke-linecap="round" stroke-miterlimit="10" x1="8.188" y1="13.669" x2="12.103" y2="13.669"/>
		<path id="XMLID_535_" fill="none" stroke="#4C3939" stroke-width="1.5" stroke-linecap="round" stroke-miterlimit="10" d="
			M38.331,16.539L38.331,16.539c0,1.658-1.344,3.001-3.001,3.001H3.751c-1.657,0-3.001-1.344-3.001-3.001l0,0"/>
		
			<polygon id="XMLID_534_" fill="none" stroke="#4C3939" stroke-width="1.5" stroke-linecap="round" stroke-linejoin="round" stroke-miterlimit="10" points="
			55.581,12.494 38.356,12.494 41.488,6.1 41.488,0.75 52.449,0.75 52.449,6.1 		"/>
		
			<line id="XMLID_533_" fill="none" stroke="#4C3939" stroke-width="1.5" stroke-linecap="round" stroke-miterlimit="10" x1="41.488" y1="6.1" x2="52.449" y2="6.1"/>
		
			<rect id="XMLID_532_" x="38.356" y="28.284" fill="none" stroke="#4C3939" stroke-width="1.5" stroke-linecap="round" stroke-miterlimit="10" width="17.225" height="21.139"/>
		
			<line id="XMLID_531_" fill="none" stroke="#4C3939" stroke-width="1.5" stroke-linecap="round" stroke-miterlimit="10" x1="38.356" y1="33.634" x2="55.581" y2="33.634"/>
		
			<line id="XMLID_530_" fill="none" stroke="#4C3939" stroke-width="1.5" stroke-linecap="round" stroke-miterlimit="10" x1="42.14" y1="36.505" x2="51.797" y2="36.505"/>
		
			<line id="XMLID_529_" fill="none" stroke="#4C3939" stroke-width="1.5" stroke-linecap="round" stroke-miterlimit="10" x1="38.356" y1="45.9" x2="55.581" y2="45.9"/>
		
			<rect id="XMLID_528_" x="43.612" y="22.673" fill="none" stroke="#4C3939" stroke-width="1.5" stroke-linecap="round" stroke-linejoin="round" stroke-miterlimit="10" width="6.59" height="5.611"/>
		
			<line id="XMLID_527_" fill="none" stroke="#4C3939" stroke-width="1.5" stroke-linecap="round" stroke-linejoin="round" stroke-miterlimit="10" x1="41.974" y1="23.977" x2="43.612" y2="23.977"/>
		
			<line id="XMLID_526_" fill="none" stroke="#4C3939" stroke-width="1.5" stroke-linecap="round" stroke-linejoin="round" stroke-miterlimit="10" x1="51.84" y1="23.977" x2="50.202" y2="23.977"/>
	</g>
</g>
</svg>
