<?xml version="1.0" encoding="utf-8"?>
<!-- Generator: Adobe Illustrator 19.1.0, SVG Export Plug-In . SVG Version: 6.00 Build 0)  -->
<svg version="1.1" id="Слой_1" xmlns="http://www.w3.org/2000/svg" xmlns:xlink="http://www.w3.org/1999/xlink" x="0px" y="0px"
	 viewBox="0 0 28 28" enable-background="new 0 0 28 28" xml:space="preserve">
<g>
	<g>
		<g>
			<path fill="#AAAAAA" d="M19.25,0H8.75C3.918,0,0,3.918,0,8.75v10.5C0,24.082,3.918,28,8.75,28h10.5c4.832,0,8.75-3.918,8.75-8.75
				V8.75C28,3.918,24.082,0,19.25,0z M25.375,19.25c0,3.378-2.747,6.125-6.125,6.125H8.75c-3.378,0-6.125-2.747-6.125-6.125V8.75
				c0-3.378,2.747-6.125,6.125-6.125h10.5c3.378,0,6.125,2.747,6.125,6.125V19.25z"/>
		</g>
	</g>
	<g>
		<g>
			<path fill="#AAAAAA" d="M14,7c-3.866,0-7,3.134-7,7c0,3.866,3.134,7,7,7c3.866,0,7-3.134,7-7C21,10.134,17.866,7,14,7z
				 M14,18.375c-2.411,0-4.375-1.963-4.375-4.375c0-2.413,1.964-4.375,4.375-4.375s4.375,1.962,4.375,4.375
				C18.375,16.412,16.412,18.375,14,18.375z"/>
		</g>
	</g>
	<g>
		<g>
			<circle fill="#AAAAAA" cx="21.525" cy="6.475" r="0.933"/>
		</g>
	</g>
</g>
</svg>
