<?xml version="1.0" encoding="utf-8"?>
<!-- Generator: Adobe Illustrator 19.1.0, SVG Export Plug-In . SVG Version: 6.00 Build 0)  -->
<svg version="1.1" id="Слой_1" xmlns="http://www.w3.org/2000/svg" xmlns:xlink="http://www.w3.org/1999/xlink" x="0px" y="0px"
	 viewBox="0 0 66.865 47.5" enable-background="new 0 0 66.865 47.5" xml:space="preserve">
<g id="XMLID_790_">
	<linearGradient id="XMLID_2_" gradientUnits="userSpaceOnUse" x1="2.5581" y1="41.2813" x2="2.5581" y2="47.5">
		<stop  offset="0" style="stop-color:#D1AE6C"/>
		<stop  offset="1" style="stop-color:#B4955B"/>
	</linearGradient>
	<rect id="XMLID_959_" y="41.281" fill="url(#XMLID_2_)" width="5.116" height="6.219"/>
	<linearGradient id="XMLID_3_" gradientUnits="userSpaceOnUse" x1="64.3071" y1="41.2813" x2="64.3071" y2="47.5">
		<stop  offset="0" style="stop-color:#D1AE6C"/>
		<stop  offset="1" style="stop-color:#B4955B"/>
	</linearGradient>
	<rect id="XMLID_960_" x="61.749" y="41.281" fill="url(#XMLID_3_)" width="5.116" height="6.219"/>
	<linearGradient id="XMLID_4_" gradientUnits="userSpaceOnUse" x1="33.4326" y1="34.9756" x2="33.4326" y2="39.7813">
		<stop  offset="0" style="stop-color:#D1AE6C"/>
		<stop  offset="1" style="stop-color:#B4955B"/>
	</linearGradient>
	<polygon id="XMLID_963_" fill="url(#XMLID_4_)" points="0,39.781 6.616,39.781 60.249,39.781 66.865,39.781 66.865,34.976 
		0,34.976 	"/>
	<linearGradient id="XMLID_5_" gradientUnits="userSpaceOnUse" x1="20.1313" y1="7.5118" x2="20.1313" y2="19.4512">
		<stop  offset="0" style="stop-color:#D1AE6C"/>
		<stop  offset="1" style="stop-color:#B4955B"/>
	</linearGradient>
	<path id="XMLID_964_" fill="url(#XMLID_5_)" d="M30.684,19.451V8.968c0-0.803-0.652-1.456-1.455-1.456H11.034
		c-0.803,0-1.455,0.653-1.455,1.456v10.483h1.395v-4.419c0-1.63,1.325-2.956,2.955-2.956h12.405c1.63,0,2.955,1.326,2.955,2.956
		v4.419H30.684z"/>
	<linearGradient id="XMLID_6_" gradientUnits="userSpaceOnUse" x1="20.1313" y1="13.5762" x2="20.1313" y2="19.4512">
		<stop  offset="0" style="stop-color:#D1AE6C"/>
		<stop  offset="1" style="stop-color:#B4955B"/>
	</linearGradient>
	<path id="XMLID_965_" fill="url(#XMLID_6_)" d="M13.929,13.576c-0.803,0-1.455,0.653-1.455,1.456v4.419h15.315v-4.419
		c0-0.803-0.652-1.456-1.455-1.456H13.929z"/>
	<linearGradient id="XMLID_7_" gradientUnits="userSpaceOnUse" x1="46.7339" y1="13.5762" x2="46.7339" y2="19.4512">
		<stop  offset="0" style="stop-color:#D1AE6C"/>
		<stop  offset="1" style="stop-color:#B4955B"/>
	</linearGradient>
	<path id="XMLID_970_" fill="url(#XMLID_7_)" d="M40.531,13.576c-0.803,0-1.455,0.653-1.455,1.456v4.419h15.315v-4.419
		c0-0.803-0.652-1.456-1.455-1.456H40.531z"/>
	<linearGradient id="XMLID_8_" gradientUnits="userSpaceOnUse" x1="33.4326" y1="6.178261e-007" x2="33.4326" y2="19.4512">
		<stop  offset="0" style="stop-color:#D1AE6C"/>
		<stop  offset="1" style="stop-color:#B4955B"/>
	</linearGradient>
	<path id="XMLID_971_" fill="url(#XMLID_8_)" d="M8.079,8.968c0-1.63,1.325-2.956,2.955-2.956h18.194
		c1.63,0,2.955,1.326,2.955,2.956v10.483h2.498V8.968c0-1.63,1.325-2.956,2.955-2.956h18.194c1.63,0,2.955,1.326,2.955,2.956v10.483
		h2.29V3.238C59.439,2.931,58.145,1.637,57.838,0H9.027C8.72,1.637,7.426,2.931,5.789,3.238v16.213h2.29V8.968z"/>
	<linearGradient id="XMLID_9_" gradientUnits="userSpaceOnUse" x1="46.7339" y1="7.5118" x2="46.7339" y2="19.4512">
		<stop  offset="0" style="stop-color:#D1AE6C"/>
		<stop  offset="1" style="stop-color:#B4955B"/>
	</linearGradient>
	<path id="XMLID_972_" fill="url(#XMLID_9_)" d="M57.286,19.451V8.968c0-0.803-0.652-1.456-1.455-1.456H37.637
		c-0.803,0-1.455,0.653-1.455,1.456v10.483h1.395v-4.419c0-1.63,1.325-2.956,2.955-2.956h12.405c1.63,0,2.955,1.326,2.955,2.956
		v4.419H57.286z"/>
	<linearGradient id="XMLID_10_" gradientUnits="userSpaceOnUse" x1="33.4326" y1="20.9512" x2="33.4326" y2="33.4756">
		<stop  offset="0" style="stop-color:#D1AE6C"/>
		<stop  offset="1" style="stop-color:#B4955B"/>
	</linearGradient>
	<path id="XMLID_973_" fill="url(#XMLID_10_)" d="M64.308,20.951H2.558C1.147,20.951,0,22.099,0,23.509v9.967h66.865v-9.967
		C66.865,22.099,65.718,20.951,64.308,20.951z"/>
</g>
</svg>
