<?xml version="1.0" encoding="utf-8"?>
<!-- Generator: Adobe Illustrator 19.1.0, SVG Export Plug-In . SVG Version: 6.00 Build 0)  -->
<svg version="1.1" id="Слой_1" xmlns="http://www.w3.org/2000/svg" xmlns:xlink="http://www.w3.org/1999/xlink" x="0px" y="0px"
	 viewBox="0 0 95.644 88" enable-background="new 0 0 95.644 88" xml:space="preserve">
<g>
	<linearGradient id="SVGID_1_" gradientUnits="userSpaceOnUse" x1="22.7071" y1="12.1802" x2="22.7071" y2="75.8198">
		<stop  offset="0" style="stop-color:#D1AE6C"/>
		<stop  offset="1" style="stop-color:#B4955B"/>
	</linearGradient>
	<path fill="none" stroke="url(#SVGID_1_)" stroke-width="2" stroke-linecap="round" stroke-miterlimit="10" d="M13.594,13.594
		C5.813,21.376,1,32.126,1,44c0,11.874,4.813,22.624,12.594,30.406L44,44L13.594,13.594z"/>
	<linearGradient id="SVGID_2_" gradientUnits="userSpaceOnUse" x1="66.6401" y1="12.5944" x2="66.6401" y2="75.4056">
		<stop  offset="0" style="stop-color:#D1AE6C"/>
		<stop  offset="1" style="stop-color:#B4955B"/>
	</linearGradient>
	
		<polyline fill="none" stroke="url(#SVGID_2_)" stroke-width="2" stroke-linecap="round" stroke-miterlimit="10" stroke-dasharray="4,4" points="
		82.05,74.406 51.644,44 82.05,13.594 	"/>
	<linearGradient id="SVGID_3_" gradientUnits="userSpaceOnUse" x1="57.7345" y1="-2.737579e-010" x2="57.7345" y2="88">
		<stop  offset="0" style="stop-color:#D1AE6C"/>
		<stop  offset="1" style="stop-color:#B4955B"/>
	</linearGradient>
	<path fill="none" stroke="url(#SVGID_3_)" stroke-width="2" stroke-linecap="round" stroke-miterlimit="10" d="M51.644,1
		C39.77,1,29.02,5.813,21.239,13.594L51.644,44L21.239,74.406C29.02,82.187,39.77,87,51.644,87c23.748,0,43-19.252,43-43
		C94.644,20.252,75.393,1,51.644,1z"/>
</g>
</svg>
