<?xml version="1.0" encoding="utf-8"?>
<!-- Generator: Adobe Illustrator 19.1.0, SVG Export Plug-In . SVG Version: 6.00 Build 0)  -->
<svg version="1.1" id="Слой_1" xmlns="http://www.w3.org/2000/svg" xmlns:xlink="http://www.w3.org/1999/xlink" x="0px" y="0px"
	 viewBox="0 0 54.416 48.5" enable-background="new 0 0 54.416 48.5" xml:space="preserve">
<g id="XMLID_779_">
	<linearGradient id="XMLID_2_" gradientUnits="userSpaceOnUse" x1="10.5953" y1="12.1826" x2="10.5953" y2="15.1494">
		<stop  offset="0" style="stop-color:#D1AE6C"/>
		<stop  offset="1" style="stop-color:#B4955B"/>
	</linearGradient>
	<path id="XMLID_990_" fill="url(#XMLID_2_)" d="M9.105,12.183v2.093c0,0.482,0.393,0.874,0.875,0.874h2.105l-0.234-2.967H9.105z"/>
	<linearGradient id="XMLID_3_" gradientUnits="userSpaceOnUse" x1="33.3636" y1="12.1826" x2="33.3636" y2="15.1494">
		<stop  offset="0" style="stop-color:#D1AE6C"/>
		<stop  offset="1" style="stop-color:#B4955B"/>
	</linearGradient>
	<path id="XMLID_992_" fill="url(#XMLID_3_)" d="M31.874,15.149h2.105c0.482,0,0.875-0.392,0.875-0.874v-2.093h-2.746L31.874,15.149
		z"/>
	<linearGradient id="XMLID_4_" gradientUnits="userSpaceOnUse" x1="4.4277" y1="24.2129" x2="4.4277" y2="48.5">
		<stop  offset="0" style="stop-color:#D1AE6C"/>
		<stop  offset="1" style="stop-color:#B4955B"/>
	</linearGradient>
	<rect id="XMLID_999_" x="3.452" y="24.213" fill="url(#XMLID_4_)" width="1.951" height="24.287"/>
	<linearGradient id="XMLID_5_" gradientUnits="userSpaceOnUse" x1="42.8463" y1="20.2539" x2="42.8463" y2="22.7129">
		<stop  offset="0" style="stop-color:#D1AE6C"/>
		<stop  offset="1" style="stop-color:#B4955B"/>
	</linearGradient>
	<polygon id="XMLID_1005_" fill="url(#XMLID_5_)" points="31.471,20.254 31.277,22.713 36.615,22.713 54.416,22.713 54.416,20.254 
		41.27,20.254 	"/>
	<linearGradient id="XMLID_6_" gradientUnits="userSpaceOnUse" x1="46.2656" y1="24.2129" x2="46.2656" y2="31.3086">
		<stop  offset="0" style="stop-color:#D1AE6C"/>
		<stop  offset="1" style="stop-color:#B4955B"/>
	</linearGradient>
	<path id="XMLID_1008_" fill="url(#XMLID_6_)" d="M38.115,31.309h16.301v-7.096H38.115V31.309z M44.794,25.505h2.944v1.5h-2.944
		V25.505z"/>
	<linearGradient id="XMLID_7_" gradientUnits="userSpaceOnUse" x1="46.2656" y1="32.8086" x2="46.2656" y2="39.9043">
		<stop  offset="0" style="stop-color:#D1AE6C"/>
		<stop  offset="1" style="stop-color:#B4955B"/>
	</linearGradient>
	<path id="XMLID_1022_" fill="url(#XMLID_7_)" d="M38.115,39.904h16.301v-7.096H38.115V39.904z M44.794,34.101h2.944v1.5h-2.944
		V34.101z"/>
	<linearGradient id="XMLID_8_" gradientUnits="userSpaceOnUse" x1="48.2182" y1="17.0342" x2="48.2182" y2="18.7539">
		<stop  offset="0" style="stop-color:#D1AE6C"/>
		<stop  offset="1" style="stop-color:#B4955B"/>
	</linearGradient>
	<rect id="XMLID_1023_" x="42.02" y="17.034" fill="url(#XMLID_8_)" width="12.396" height="1.72"/>
	<linearGradient id="XMLID_9_" gradientUnits="userSpaceOnUse" x1="6.3412" y1="20.2539" x2="6.3412" y2="22.7129">
		<stop  offset="0" style="stop-color:#D1AE6C"/>
		<stop  offset="1" style="stop-color:#B4955B"/>
	</linearGradient>
	<polygon id="XMLID_1026_" fill="url(#XMLID_9_)" points="0,20.254 0,22.713 1.952,22.713 6.903,22.713 12.682,22.713 
		12.488,20.254 	"/>
	<linearGradient id="XMLID_10_" gradientUnits="userSpaceOnUse" x1="46.2656" y1="41.4043" x2="46.2656" y2="48.5">
		<stop  offset="0" style="stop-color:#D1AE6C"/>
		<stop  offset="1" style="stop-color:#B4955B"/>
	</linearGradient>
	<path id="XMLID_1032_" fill="url(#XMLID_10_)" d="M38.115,48.5h16.301v-7.096H38.115V48.5z M44.794,42.696h2.944v1.5h-2.944V42.696
		z"/>
	<linearGradient id="XMLID_11_" gradientUnits="userSpaceOnUse" x1="21.9795" y1="6.183836e-007" x2="21.9795" y2="10.6826">
		<stop  offset="0" style="stop-color:#D1AE6C"/>
		<stop  offset="1" style="stop-color:#B4955B"/>
	</linearGradient>
	<path id="XMLID_1033_" fill="url(#XMLID_11_)" d="M34.853,10.683V0.874C34.853,0.392,34.461,0,33.978,0H9.98
		C9.498,0,9.105,0.392,9.105,0.874v9.809h2.845c0.18-0.872,0.571-1.696,1.184-2.36c0.93-1.005,2.248-1.582,3.617-1.582h10.455
		c1.369,0,2.687,0.577,3.617,1.582c0.614,0.664,1.005,1.488,1.184,2.36H34.853z"/>
	<linearGradient id="XMLID_12_" gradientUnits="userSpaceOnUse" x1="21.9794" y1="35.7187" x2="21.9794" y2="48.5">
		<stop  offset="0" style="stop-color:#D1AE6C"/>
		<stop  offset="1" style="stop-color:#B4955B"/>
	</linearGradient>
	<path id="XMLID_788_" fill="url(#XMLID_12_)" d="M21.229,35.719v8.376h-1.28c-2.429,0-4.405,1.977-4.405,4.405h1.5
		c0-1.602,1.304-2.905,2.905-2.905h4.061c1.602,0,2.905,1.304,2.905,2.905h1.5c0-2.429-1.977-4.405-4.405-4.405h-1.28v-8.376H21.229
		z"/>
	<linearGradient id="XMLID_13_" gradientUnits="userSpaceOnUse" x1="21.9795" y1="28.8154" x2="21.9795" y2="29.8877">
		<stop  offset="0" style="stop-color:#D1AE6C"/>
		<stop  offset="1" style="stop-color:#B4955B"/>
	</linearGradient>
	<rect id="XMLID_789_" x="21.229" y="28.815" fill="url(#XMLID_13_)" width="1.5" height="1.072"/>
	<linearGradient id="XMLID_14_" gradientUnits="userSpaceOnUse" x1="21.9795" y1="8.2402" x2="21.9795" y2="27.3154">
		<stop  offset="0" style="stop-color:#D1AE6C"/>
		<stop  offset="1" style="stop-color:#B4955B"/>
	</linearGradient>
	<path id="XMLID_781_" fill="url(#XMLID_14_)" d="M29.723,9.341c-0.656-0.71-1.55-1.101-2.516-1.101H16.752
		c-0.966,0-1.859,0.391-2.516,1.101c-0.656,0.71-0.976,1.632-0.899,2.596l0.977,12.369c0.133,1.688,1.563,3.01,3.257,3.01h3.659h1.5
		h3.659c1.693,0,3.124-1.322,3.257-3.01l0.977-12.369C30.698,10.973,30.379,10.051,29.723,9.341z"/>
	<linearGradient id="XMLID_15_" gradientUnits="userSpaceOnUse" x1="21.9795" y1="31.3877" x2="21.9795" y2="34.2187">
		<stop  offset="0" style="stop-color:#D1AE6C"/>
		<stop  offset="1" style="stop-color:#B4955B"/>
	</linearGradient>
	<path id="XMLID_780_" fill="url(#XMLID_15_)" d="M27.152,31.388h-3.673h-0.75h-1.5h-0.75h-3.673c-1.293,0-2.345,1.052-2.345,2.344
		v0.487h6.018h0.75h1.5h0.75h6.018v-0.487C29.497,32.439,28.445,31.388,27.152,31.388z"/>
</g>
</svg>
