<?xml version="1.0" encoding="utf-8"?>
<!-- Generator: Adobe Illustrator 19.1.0, SVG Export Plug-In . SVG Version: 6.00 Build 0)  -->
<svg version="1.1" id="Слой_1" xmlns="http://www.w3.org/2000/svg" xmlns:xlink="http://www.w3.org/1999/xlink" x="0px" y="0px"
	 viewBox="0 0 69.866 50.5" enable-background="new 0 0 69.866 50.5" xml:space="preserve">
<g id="XMLID_606_">
	<g id="XMLID_612_">
		<polyline id="XMLID_616_" fill="none" stroke="#4C3939" stroke-width="1.5" stroke-miterlimit="10" points="0.75,35.725 
			34.933,35.725 69.116,35.725 		"/>
		<path id="XMLID_615_" fill="none" stroke="#4C3939" stroke-width="1.5" stroke-miterlimit="10" d="M0.75,42.031h68.366V25.009
			c0-1.827-1.481-3.308-3.308-3.308H4.058c-1.827,0-3.308,1.481-3.308,3.308V42.031"/>
		
			<rect id="XMLID_614_" x="0.75" y="42.031" fill="none" stroke="#4C3939" stroke-width="1.5" stroke-miterlimit="10" width="6.616" height="7.719"/>
		
			<rect id="XMLID_613_" x="62.5" y="42.031" fill="none" stroke="#4C3939" stroke-width="1.5" stroke-miterlimit="10" width="6.616" height="7.719"/>
	</g>
	<path id="XMLID_611_" fill="none" stroke="#4C3939" stroke-width="1.5" stroke-linejoin="round" stroke-miterlimit="10" d="
		M6.539,21.701V4.058c1.827,0,3.308-1.481,3.308-3.308h50.172c0,1.827,1.481,3.308,3.308,3.308v17.643"/>
	<path id="XMLID_610_" fill="none" stroke="#4C3939" stroke-width="1.5" stroke-miterlimit="10" d="M10.329,21.701V10.467
		c0-1.218,0.987-2.205,2.205-2.205h18.194c1.218,0,2.205,0.987,2.205,2.205v11.233"/>
	<path id="XMLID_609_" fill="none" stroke="#4C3939" stroke-width="1.5" stroke-miterlimit="10" d="M13.224,21.701v-5.169
		c0-1.218,0.987-2.205,2.205-2.205h12.405c1.218,0,2.205,0.987,2.205,2.205v5.169"/>
	<path id="XMLID_608_" fill="none" stroke="#4C3939" stroke-width="1.5" stroke-miterlimit="10" d="M59.536,21.701V10.467
		c0-1.218-0.987-2.205-2.205-2.205H39.137c-1.218,0-2.205,0.987-2.205,2.205v11.233"/>
	<path id="XMLID_607_" fill="none" stroke="#4C3939" stroke-width="1.5" stroke-miterlimit="10" d="M56.642,21.701v-5.169
		c0-1.218-0.987-2.205-2.205-2.205H42.031c-1.218,0-2.205,0.987-2.205,2.205v5.169"/>
</g>
</svg>
