<?xml version="1.0" encoding="utf-8"?>
<!-- Generator: Adobe Illustrator 19.1.0, SVG Export Plug-In . SVG Version: 6.00 Build 0)  -->
<svg version="1.1" id="Слой_1" xmlns="http://www.w3.org/2000/svg" xmlns:xlink="http://www.w3.org/1999/xlink" x="0px" y="0px"
	 viewBox="0 0 40 40" enable-background="new 0 0 40 40" xml:space="preserve">
<g>
	<circle fill="#FFEA75" cx="20" cy="20" r="20"/>
	<path fill="#212121" d="M27.745,26.509l-4.424-4.424c0.826-1.094,1.278-2.427,1.278-3.786c0-3.473-2.826-6.299-6.3-6.299
		C14.826,12,12,14.826,12,18.299c0,3.474,2.826,6.3,6.299,6.3c1.395,0,2.698-0.44,3.788-1.276l4.423,4.423
		C26.678,27.912,26.891,28,27.127,28c0.236,0,0.45-0.088,0.618-0.256C28.085,27.403,28.085,26.849,27.745,26.509z M22.852,18.299
		c0,2.511-2.043,4.553-4.553,4.553c-2.51,0-4.552-2.043-4.552-4.553c0-2.51,2.042-4.552,4.552-4.552
		C20.81,13.747,22.852,15.789,22.852,18.299z"/>
</g>
</svg>
