<?xml version="1.0" encoding="utf-8"?>
<!-- Generator: Adobe Illustrator 19.1.0, SVG Export Plug-In . SVG Version: 6.00 Build 0)  -->
<svg version="1.1" id="Слой_1" xmlns="http://www.w3.org/2000/svg" xmlns:xlink="http://www.w3.org/1999/xlink" x="0px" y="0px"
	 viewBox="0 0 52.75 47.5" enable-background="new 0 0 52.75 47.5" xml:space="preserve">
<g id="XMLID_784_">
	<linearGradient id="XMLID_2_" gradientUnits="userSpaceOnUse" x1="44.8296" y1="-3.547029e-010" x2="44.8296" y2="31.6709">
		<stop  offset="0" style="stop-color:#D1AE6C"/>
		<stop  offset="1" style="stop-color:#B4955B"/>
	</linearGradient>
	<path id="XMLID_1004_" fill="url(#XMLID_2_)" d="M36.909,31.671H52.75V0H36.909V31.671z M38.75,1.842h12.158v28.227H38.75V1.842z"
		/>
	<linearGradient id="XMLID_3_" gradientUnits="userSpaceOnUse" x1="8.4771" y1="36.1055" x2="8.4771" y2="47.5">
		<stop  offset="0" style="stop-color:#D1AE6C"/>
		<stop  offset="1" style="stop-color:#B4955B"/>
	</linearGradient>
	<path id="XMLID_1045_" fill="url(#XMLID_3_)" d="M0,47.5h16.954V36.106H0V47.5z M13.63,39.869h1.5v3.315h-1.5V39.869z"/>
	<linearGradient id="XMLID_4_" gradientUnits="userSpaceOnUse" x1="26.9317" y1="9.0264" x2="26.9317" y2="16.5527">
		<stop  offset="0" style="stop-color:#D1AE6C"/>
		<stop  offset="1" style="stop-color:#B4955B"/>
	</linearGradient>
	<rect id="XMLID_1055_" x="18.454" y="9.026" fill="url(#XMLID_4_)" width="16.955" height="7.526"/>
	<linearGradient id="XMLID_5_" gradientUnits="userSpaceOnUse" x1="26.9317" y1="27.0791" x2="26.9317" y2="34.6055">
		<stop  offset="0" style="stop-color:#D1AE6C"/>
		<stop  offset="1" style="stop-color:#B4955B"/>
	</linearGradient>
	<rect id="XMLID_1056_" x="18.454" y="27.079" fill="url(#XMLID_5_)" width="16.955" height="7.526"/>
	<linearGradient id="XMLID_6_" gradientUnits="userSpaceOnUse" x1="26.9317" y1="18.0527" x2="26.9317" y2="25.5791">
		<stop  offset="0" style="stop-color:#D1AE6C"/>
		<stop  offset="1" style="stop-color:#B4955B"/>
	</linearGradient>
	<rect id="XMLID_1057_" x="18.454" y="18.053" fill="url(#XMLID_6_)" width="16.955" height="7.526"/>
	<linearGradient id="XMLID_7_" gradientUnits="userSpaceOnUse" x1="44.8296" y1="33.1709" x2="44.8296" y2="34.6055">
		<stop  offset="0" style="stop-color:#D1AE6C"/>
		<stop  offset="1" style="stop-color:#B4955B"/>
	</linearGradient>
	<rect id="XMLID_1058_" x="36.909" y="33.171" fill="url(#XMLID_7_)" width="15.841" height="1.435"/>
	<linearGradient id="XMLID_8_" gradientUnits="userSpaceOnUse" x1="44.8296" y1="36.1055" x2="44.8296" y2="47.5">
		<stop  offset="0" style="stop-color:#D1AE6C"/>
		<stop  offset="1" style="stop-color:#B4955B"/>
	</linearGradient>
	<rect id="XMLID_1059_" x="36.909" y="36.106" fill="url(#XMLID_8_)" width="15.841" height="11.394"/>
	<linearGradient id="XMLID_9_" gradientUnits="userSpaceOnUse" x1="26.9317" y1="-3.792593e-010" x2="26.9317" y2="7.5264">
		<stop  offset="0" style="stop-color:#D1AE6C"/>
		<stop  offset="1" style="stop-color:#B4955B"/>
	</linearGradient>
	<rect id="XMLID_1060_" x="18.454" y="0" fill="url(#XMLID_9_)" width="16.955" height="7.526"/>
	<linearGradient id="XMLID_10_" gradientUnits="userSpaceOnUse" x1="26.9317" y1="36.1055" x2="26.9317" y2="47.5">
		<stop  offset="0" style="stop-color:#D1AE6C"/>
		<stop  offset="1" style="stop-color:#B4955B"/>
	</linearGradient>
	<path id="XMLID_1063_" fill="url(#XMLID_10_)" d="M18.454,47.5h16.955V36.106H18.454V47.5z M20.278,39.869h1.5v3.315h-1.5V39.869z"
		/>
	<linearGradient id="XMLID_11_" gradientUnits="userSpaceOnUse" x1="8.4771" y1="-3.792593e-010" x2="8.4771" y2="34.6055">
		<stop  offset="0" style="stop-color:#D1AE6C"/>
		<stop  offset="1" style="stop-color:#B4955B"/>
	</linearGradient>
	<path id="XMLID_1066_" fill="url(#XMLID_11_)" d="M0,34.606h16.954V0H0V34.606z M13.63,16.106h1.5v3.315h-1.5V16.106z"/>
	<linearGradient id="XMLID_12_" gradientUnits="userSpaceOnUse" x1="44.8291" y1="3.3418" x2="44.8291" y2="28.5684">
		<stop  offset="0" style="stop-color:#D1AE6C"/>
		<stop  offset="1" style="stop-color:#B4955B"/>
	</linearGradient>
	<rect id="XMLID_1068_" x="40.25" y="3.342" fill="url(#XMLID_12_)" width="9.158" height="25.227"/>
</g>
</svg>
