<?xml version="1.0" encoding="utf-8"?>
<!-- Generator: Adobe Illustrator 19.1.0, SVG Export Plug-In . SVG Version: 6.00 Build 0)  -->
<svg version="1.1" id="Слой_1" xmlns="http://www.w3.org/2000/svg" xmlns:xlink="http://www.w3.org/1999/xlink" x="0px" y="0px"
	 viewBox="0 0 65.686 47.5" enable-background="new 0 0 65.686 47.5" xml:space="preserve">
<g>
	
		<rect x="0.75" y="0.75" fill="none" stroke="#4C3939" stroke-width="1.5" stroke-linejoin="round" stroke-miterlimit="10" width="64.186" height="7.488"/>
	<polygon fill="none" stroke="#4C3939" stroke-width="1.5" stroke-miterlimit="10" points="59.39,46.75 54.041,46.75 50.041,8.238 
		55.39,8.238 	"/>
	<polygon fill="none" stroke="#4C3939" stroke-width="1.5" stroke-miterlimit="10" points="6.296,46.75 11.645,46.75 15.645,8.238 
		10.296,8.238 	"/>
	<path fill="none" stroke="#4C3939" stroke-width="1.5" stroke-linecap="round" stroke-linejoin="round" stroke-miterlimit="10" d="
		M50.975,19.536c-0.512-5.081-4.802-9.048-10.018-9.048c-4.449,0-8.056,3.607-8.056,8.056c0,3.559,2.885,6.444,6.444,6.444
		c2.847,0,5.156-2.308,5.156-5.156"/>
	<path fill="none" stroke="#4C3939" stroke-width="1.5" stroke-linecap="round" stroke-linejoin="round" stroke-miterlimit="10" d="
		M14.711,19.536c0.512-5.081,4.802-9.048,10.018-9.048c4.449,0,8.056,3.607,8.056,8.056c0,3.559-2.885,6.444-6.444,6.444
		c-2.847,0-5.156-2.308-5.156-5.156"/>
	
		<line fill="none" stroke="#4C3939" stroke-width="1.5" stroke-linecap="round" stroke-linejoin="round" stroke-miterlimit="10" x1="13.282" y1="30.988" x2="52.404" y2="30.988"/>
</g>
</svg>
