<?xml version="1.0" encoding="utf-8"?>
<!-- Generator: Adobe Illustrator 19.1.0, SVG Export Plug-In . SVG Version: 6.00 Build 0)  -->
<svg version="1.1" id="Слой_1" xmlns="http://www.w3.org/2000/svg" xmlns:xlink="http://www.w3.org/1999/xlink" x="0px" y="0px"
	 viewBox="0 0 178 79.209" enable-background="new 0 0 178 79.209" xml:space="preserve">
<g>
	<g>
		<g>
			<path fill="#ED1B2F" d="M39.27,56.485H28.602V37.367L20.3,50.259h-1.331l-8.302-12.892v19.118H0V19.436h10.667l8.967,14.003
				l8.967-14.003H39.27V56.485z"/>
			<path fill="#ED1B2F" d="M88.336,19.436v37.049H77.22v-3.484c-2.445,2.818-6.074,4.522-11.04,4.522
				c-9.705,0-17.707-8.522-17.707-19.563s8.001-19.563,17.707-19.563c4.967,0,8.595,1.704,11.04,4.522v-3.484H88.336z M77.22,37.96
				c0-5.556-3.704-9.04-8.815-9.04c-5.115,0-8.819,3.483-8.819,9.04S63.29,47,68.404,47C73.516,47,77.22,43.516,77.22,37.96z"/>
			<path fill="#ED1B2F" d="M178,56.485h-10.819V45.813h-2.297l-7.633,10.671h-12.596l8.667-12.227
				c-4.594-2.297-7.188-7.039-7.188-11.633c0-6.522,4.818-13.189,13.782-13.189H178V56.485z M156.954,32.994
				c0,2.297,1.555,3.632,3.928,3.632h6.298v-7.408h-6.298C158.51,29.217,156.954,30.624,156.954,32.994z"/>
			<g>
				<polygon fill="#ED1B2F" points="108.592,14.166 104.866,6.504 118.232,0 131.113,6.537 127.257,14.133 118.152,9.514 				"/>
			</g>
			<path fill="#ED1B2F" d="M135.401,19.436v37.049h-10.816V37.96l-15.858,18.524h-8.15V19.436h10.816V37.96l15.858-18.524H135.401z"
				/>
		</g>
	</g>
	<g>
		<polygon fill="#67686B" points="27.498,74.6 25.608,71.534 24.5,71.534 24.5,77.647 25.554,77.647 25.554,73.355 27.372,76.306 
			27.624,76.306 29.443,73.355 29.443,77.647 30.497,77.647 30.497,71.534 29.389,71.534 		"/>
		<path fill="#67686B" d="M37.011,71.394c-1.845,0-3.185,1.344-3.185,3.197c0,1.852,1.364,3.197,3.243,3.197
			c1.154,0,2.133-0.513,2.686-1.408l0.076-0.124l-0.927-0.543l-0.071,0.126c-0.329,0.584-0.968,0.919-1.753,0.919
			c-1.115,0-1.942-0.638-2.151-1.639h5.078l0.013-0.128c0.012-0.121,0.024-0.254,0.024-0.375
			C40.044,73.053,38.981,71.394,37.011,71.394z M34.929,74.087c0.203-1.001,1.021-1.662,2.082-1.662
			c0.764,0,1.706,0.439,1.932,1.662H34.929z"/>
		<path fill="#67686B" d="M46.209,72.058c-0.54,0-1.228,0.158-1.794,0.571c0.259-0.395,0.676-0.677,1.396-0.986
			c0.158-0.069,0.317-0.135,0.474-0.2c1.017-0.421,1.978-0.819,2.151-1.901l0.015-0.097l-0.873-0.504l-0.029,0.208
			c-0.099,0.698-0.661,0.936-1.512,1.296c-0.24,0.102-0.488,0.206-0.752,0.333c-1.972,0.95-2.319,2.005-2.319,3.87
			c0,1.819,1.295,3.138,3.08,3.138c1.737,0,2.999-1.207,2.999-2.87C49.045,73.26,47.852,72.058,46.209,72.058z M47.991,74.917
			c0,1.07-0.8,1.816-1.945,1.816c-1.147,0-1.979-0.793-1.979-1.886c0-1.101,1.036-1.758,2.038-1.758
			C47.233,73.089,47.991,73.824,47.991,74.917z"/>
		<path fill="#67686B" d="M52.63,75.022c0,0.742-0.122,1.214-0.374,1.442c-0.172,0.156-0.419,0.212-0.776,0.177l-0.156-0.015v1.012
			l0.132,0.009c0.083,0.006,0.164,0.009,0.243,0.009c0.555,0,0.984-0.147,1.306-0.447c0.457-0.426,0.679-1.141,0.679-2.187v-2.457
			h2.351v5.083h1.053v-6.113H52.63V75.022z"/>
		<rect x="60.768" y="71.534" fill="#67686B" width="1.054" height="6.113"/>
		<circle fill="#67686B" cx="61.294" cy="69.881" r="0.702"/>
		<path fill="#67686B" d="M74.882,74.481c0.35-0.293,0.533-0.718,0.533-1.243c0-1.035-0.756-1.704-1.926-1.704h-2.742v6.113h2.975
			c1.199,0,1.973-0.696,1.973-1.774C75.695,75.256,75.402,74.761,74.882,74.481z M73.489,74.052h-1.688v-1.487h1.688
			c0.398,0,0.872,0.125,0.872,0.721C74.361,73.801,74.076,74.052,73.489,74.052z M74.641,75.826c0,0.653-0.5,0.791-0.919,0.791
			h-1.921v-1.534h1.921C74.306,75.082,74.641,75.353,74.641,75.826z"/>
		<polygon fill="#67686B" points="89.251,71.534 87.784,71.534 85.207,73.926 85.207,71.534 84.154,71.534 84.154,77.647 
			85.207,77.647 85.207,75.03 87.922,77.647 89.356,77.647 86.088,74.476 		"/>
		<path fill="#67686B" d="M94.52,71.394c-1.799,0-3.208,1.404-3.208,3.197c0,1.792,1.409,3.197,3.208,3.197
			c1.799,0,3.208-1.404,3.208-3.197C97.728,72.798,96.319,71.394,94.52,71.394z M96.674,74.59c0,1.215-0.946,2.166-2.155,2.166
			s-2.154-0.952-2.154-2.166s0.946-2.166,2.154-2.166S96.674,73.376,96.674,74.59z"/>
		<polygon fill="#67686B" points="107.743,71.534 106.428,71.534 104.373,73.885 104.373,71.534 103.319,71.534 103.319,73.885 
			101.265,71.534 99.95,71.534 102.573,74.476 99.841,77.647 101.149,77.647 103.319,75.083 103.319,77.647 104.373,77.647 
			104.373,75.083 106.544,77.647 107.852,77.647 105.12,74.476 		"/>
		<path fill="#67686B" d="M113.149,71.394c-1.845,0-3.185,1.344-3.185,3.197c0,1.852,1.364,3.197,3.243,3.197
			c1.154,0,2.133-0.513,2.686-1.408l0.076-0.124l-0.927-0.543l-0.071,0.126c-0.328,0.584-0.968,0.919-1.753,0.919
			c-1.115,0-1.942-0.638-2.151-1.639h5.078l0.013-0.128c0.012-0.121,0.024-0.254,0.024-0.375
			C116.183,73.053,115.12,71.394,113.149,71.394z M111.067,74.087c0.203-1.001,1.021-1.662,2.082-1.662
			c0.764,0,1.706,0.439,1.932,1.662H111.067z"/>
		<polygon fill="#67686B" points="123.581,74.075 120.508,74.075 120.508,71.534 119.454,71.534 119.454,77.647 120.508,77.647 
			120.508,75.106 123.581,75.106 123.581,77.647 124.635,77.647 124.635,71.534 123.581,71.534 		"/>
		<path fill="#67686B" d="M138.741,71.534h-4.458v3.022c0,1.094-0.208,1.627-0.524,2.061h-0.782v2.593h1.054v-1.562h4.472v1.562
			h1.054v-2.593h-0.816V71.534z M137.687,72.564v4.052h-2.702c0.239-0.565,0.352-1.227,0.352-2.061v-1.991H137.687z"/>
		<circle fill="#67686B" cx="143.297" cy="69.881" r="0.702"/>
		<rect x="142.77" y="71.534" fill="#67686B" width="1.054" height="6.113"/>
		<polygon fill="#67686B" points="152.392,71.534 150.502,74.6 148.611,71.534 147.503,71.534 147.503,77.647 148.557,77.647 
			148.557,73.355 150.376,76.306 150.628,76.306 152.446,73.355 152.446,77.647 153.5,77.647 153.5,71.534 		"/>
	</g>
</g>
</svg>
