<?xml version="1.0" encoding="utf-8"?>
<!-- Generator: Adobe Illustrator 19.1.0, SVG Export Plug-In . SVG Version: 6.00 Build 0)  -->
<svg version="1.1" id="Слой_1" xmlns="http://www.w3.org/2000/svg" xmlns:xlink="http://www.w3.org/1999/xlink" x="0px" y="0px"
	 viewBox="0 0 59.944 76" enable-background="new 0 0 59.944 76" xml:space="preserve">
<path fill="#ED1B2F" d="M29.972,0C13.419,0,0,13.419,0,29.972c0,14.34,22.494,39.046,28.508,45.396c0.798,0.843,2.13,0.843,2.928,0
	c6.014-6.35,28.508-31.056,28.508-45.396C59.944,13.419,46.525,0,29.972,0z M29.972,43.085c-7.242,0-13.113-5.871-13.113-13.113
	c0-7.242,5.871-13.113,13.113-13.113c7.242,0,13.113,5.871,13.113,13.113C43.085,37.214,37.214,43.085,29.972,43.085z"/>
</svg>
