<?xml version="1.0" encoding="utf-8"?>
<!-- Generator: Adobe Illustrator 19.1.0, SVG Export Plug-In . SVG Version: 6.00 Build 0)  -->
<svg version="1.1" id="Слой_1" xmlns="http://www.w3.org/2000/svg" xmlns:xlink="http://www.w3.org/1999/xlink" x="0px" y="0px"
	 viewBox="0 0 65.719 50.5" enable-background="new 0 0 65.719 50.5" xml:space="preserve">
<g id="XMLID_617_">
	
		<rect id="XMLID_625_" x="11.439" y="0.75" fill="none" stroke="#4C3939" stroke-width="1.5" stroke-miterlimit="10" width="42.84" height="21.176"/>
	
		<rect id="XMLID_624_" x="31.004" y="21.926" fill="none" stroke="#4C3939" stroke-width="1.5" stroke-miterlimit="10" width="3.711" height="3.403"/>
	<path id="XMLID_623_" fill="none" stroke="#4C3939" stroke-width="1.5" stroke-miterlimit="10" d="M63.113,49.75H2.606
		c-1.025,0-1.856-0.831-1.856-1.856v-20.71c0-1.025,0.831-1.856,1.856-1.856h60.507c1.025,0,1.856,0.831,1.856,1.856v20.71
		C64.969,48.919,64.138,49.75,63.113,49.75z"/>
	<polyline id="XMLID_622_" fill="none" stroke="#4C3939" stroke-width="1.5" stroke-miterlimit="10" points="0.75,43.808 
		32.859,43.808 64.969,43.808 	"/>
	
		<line id="XMLID_621_" fill="none" stroke="#4C3939" stroke-width="1.5" stroke-miterlimit="10" x1="23.235" y1="25.329" x2="23.235" y2="43.808"/>
	
		<circle id="XMLID_620_" fill="none" stroke="#4C3939" stroke-width="1.5" stroke-miterlimit="10" cx="11.786" cy="31.921" r="1.328"/>
	
		<line id="XMLID_619_" fill="none" stroke="#4C3939" stroke-width="1.5" stroke-miterlimit="10" x1="42.484" y1="25.329" x2="42.484" y2="43.808"/>
	
		<circle id="XMLID_618_" fill="none" stroke="#4C3939" stroke-width="1.5" stroke-miterlimit="10" cx="53.932" cy="31.921" r="1.328"/>
</g>
</svg>
