<?xml version="1.0" encoding="utf-8"?>
<!-- Generator: Adobe Illustrator 19.1.0, SVG Export Plug-In . SVG Version: 6.00 Build 0)  -->
<svg version="1.1" id="Слой_1" xmlns="http://www.w3.org/2000/svg" xmlns:xlink="http://www.w3.org/1999/xlink" x="0px" y="0px"
	 viewBox="0 0 67.006 47.5" enable-background="new 0 0 67.006 47.5" xml:space="preserve">
<g id="XMLID_787_">
	<linearGradient id="XMLID_2_" gradientUnits="userSpaceOnUse" x1="56.9761" y1="11.2432" x2="56.9761" y2="16.9297">
		<stop  offset="0" style="stop-color:#D1AE6C"/>
		<stop  offset="1" style="stop-color:#B4955B"/>
	</linearGradient>
	<rect id="XMLID_933_" x="51.356" y="11.243" fill="url(#XMLID_2_)" width="11.239" height="5.687"/>
	<linearGradient id="XMLID_3_" gradientUnits="userSpaceOnUse" x1="56.9761" y1="8.4727" x2="56.9761" y2="9.7432">
		<stop  offset="0" style="stop-color:#D1AE6C"/>
		<stop  offset="1" style="stop-color:#B4955B"/>
	</linearGradient>
	<rect id="XMLID_934_" x="51.356" y="8.473" fill="url(#XMLID_3_)" width="11.239" height="1.27"/>
	<linearGradient id="XMLID_4_" gradientUnits="userSpaceOnUse" x1="65.5508" y1="6.188566e-007" x2="65.5508" y2="47.5">
		<stop  offset="0" style="stop-color:#D1AE6C"/>
		<stop  offset="1" style="stop-color:#B4955B"/>
	</linearGradient>
	<rect id="XMLID_935_" x="64.096" y="0" fill="url(#XMLID_4_)" width="2.91" height="47.5"/>
	<linearGradient id="XMLID_5_" gradientUnits="userSpaceOnUse" x1="1.4551" y1="6.188566e-007" x2="1.4551" y2="47.5">
		<stop  offset="0" style="stop-color:#D1AE6C"/>
		<stop  offset="1" style="stop-color:#B4955B"/>
	</linearGradient>
	<rect id="XMLID_961_" x="0" y="0" fill="url(#XMLID_5_)" width="2.91" height="47.5"/>
	<linearGradient id="XMLID_6_" gradientUnits="userSpaceOnUse" x1="25.126" y1="11.2432" x2="25.126" y2="16.9297">
		<stop  offset="0" style="stop-color:#D1AE6C"/>
		<stop  offset="1" style="stop-color:#B4955B"/>
	</linearGradient>
	<polygon id="XMLID_974_" fill="url(#XMLID_6_)" points="4.952,11.243 4.41,11.243 4.41,16.93 45.842,16.93 45.842,11.243 
		17.477,11.243 	"/>
	<linearGradient id="XMLID_7_" gradientUnits="userSpaceOnUse" x1="56.9761" y1="37.8721" x2="56.9761" y2="39.3125">
		<stop  offset="0" style="stop-color:#D1AE6C"/>
		<stop  offset="1" style="stop-color:#B4955B"/>
	</linearGradient>
	<rect id="XMLID_975_" x="51.356" y="37.872" fill="url(#XMLID_7_)" width="11.239" height="1.44"/>
	<linearGradient id="XMLID_8_" gradientUnits="userSpaceOnUse" x1="48.5991" y1="6.188657e-007" x2="48.5991" y2="47.5">
		<stop  offset="0" style="stop-color:#D1AE6C"/>
		<stop  offset="1" style="stop-color:#B4955B"/>
	</linearGradient>
	<rect id="XMLID_976_" x="47.342" y="0" fill="url(#XMLID_8_)" width="2.515" height="47.5"/>
	<linearGradient id="XMLID_9_" gradientUnits="userSpaceOnUse" x1="56.9761" y1="33.6719" x2="56.9761" y2="36.3721">
		<stop  offset="0" style="stop-color:#D1AE6C"/>
		<stop  offset="1" style="stop-color:#B4955B"/>
	</linearGradient>
	<rect id="XMLID_977_" x="51.356" y="33.672" fill="url(#XMLID_9_)" width="11.239" height="2.7"/>
	<linearGradient id="XMLID_10_" gradientUnits="userSpaceOnUse" x1="15.358" y1="3.1162" x2="15.358" y2="9.7432">
		<stop  offset="0" style="stop-color:#D1AE6C"/>
		<stop  offset="1" style="stop-color:#B4955B"/>
	</linearGradient>
	<path id="XMLID_979_" fill="url(#XMLID_10_)" d="M10.071,5.374h2.286c2.565,0,4.677,1.904,5.043,4.369h8.905
		c-0.377-3.716-3.525-6.627-7.34-6.627H4.41v6.627h0.618C5.395,7.278,7.506,5.374,10.071,5.374z"/>
	<linearGradient id="XMLID_11_" gradientUnits="userSpaceOnUse" x1="56.9761" y1="23.1729" x2="56.9761" y2="24.6123">
		<stop  offset="0" style="stop-color:#D1AE6C"/>
		<stop  offset="1" style="stop-color:#B4955B"/>
	</linearGradient>
	<rect id="XMLID_980_" x="51.356" y="23.173" fill="url(#XMLID_11_)" width="11.239" height="1.439"/>
	<linearGradient id="XMLID_12_" gradientUnits="userSpaceOnUse" x1="15.3579" y1="25.5459" x2="15.3579" y2="32.1719">
		<stop  offset="0" style="stop-color:#D1AE6C"/>
		<stop  offset="1" style="stop-color:#B4955B"/>
	</linearGradient>
	<path id="XMLID_982_" fill="url(#XMLID_12_)" d="M10.071,27.803h2.286c2.565,0,4.677,1.904,5.043,4.369h8.905
		c-0.378-3.716-3.525-6.626-7.34-6.626H4.41v6.626h0.618C5.395,29.707,7.506,27.803,10.071,27.803z"/>
	<linearGradient id="XMLID_13_" gradientUnits="userSpaceOnUse" x1="11.2144" y1="29.3027" x2="11.2144" y2="32.1719">
		<stop  offset="0" style="stop-color:#D1AE6C"/>
		<stop  offset="1" style="stop-color:#B4955B"/>
	</linearGradient>
	<path id="XMLID_983_" fill="url(#XMLID_13_)" d="M12.357,29.303h-2.286c-1.738,0-3.194,1.233-3.541,2.869h9.368
		C15.552,30.535,14.096,29.303,12.357,29.303z"/>
	<linearGradient id="XMLID_14_" gradientUnits="userSpaceOnUse" x1="25.126" y1="33.6719" x2="25.126" y2="39.3594">
		<stop  offset="0" style="stop-color:#D1AE6C"/>
		<stop  offset="1" style="stop-color:#B4955B"/>
	</linearGradient>
	<polygon id="XMLID_985_" fill="url(#XMLID_14_)" points="4.952,33.672 4.41,33.672 4.41,39.359 45.842,39.359 45.842,33.672 
		17.477,33.672 	"/>
	<linearGradient id="XMLID_15_" gradientUnits="userSpaceOnUse" x1="11.2144" y1="6.874" x2="11.2144" y2="9.7432">
		<stop  offset="0" style="stop-color:#D1AE6C"/>
		<stop  offset="1" style="stop-color:#B4955B"/>
	</linearGradient>
	<path id="XMLID_986_" fill="url(#XMLID_15_)" d="M12.357,6.874h-2.286c-1.738,0-3.194,1.232-3.541,2.869h9.368
		C15.552,8.106,14.096,6.874,12.357,6.874z"/>
</g>
</svg>
