<?xml version="1.0" encoding="utf-8"?>
<!-- Generator: Adobe Illustrator 19.1.0, SVG Export Plug-In . SVG Version: 6.00 Build 0)  -->
<svg version="1.1" id="Слой_1" xmlns="http://www.w3.org/2000/svg" xmlns:xlink="http://www.w3.org/1999/xlink" x="0px" y="0px"
	 viewBox="0 0 64.979 47.173" enable-background="new 0 0 64.979 47.173" xml:space="preserve">
<g>
	<linearGradient id="XMLID_2_" gradientUnits="userSpaceOnUse" x1="59.9053" y1="6.186938e-007" x2="59.9053" y2="47.1729">
		<stop  offset="0" style="stop-color:#D1AE6C"/>
		<stop  offset="1" style="stop-color:#B4955B"/>
	</linearGradient>
	<path id="XMLID_1042_" fill="url(#XMLID_2_)" d="M64.98,0H54.831v25.297v21.876H64.98V0z M58.107,25.489
		c0,0.414-0.336,0.75-0.75,0.75c-0.414,0-0.75-0.336-0.75-0.75v-4.733c0-0.414,0.336-0.75,0.75-0.75c0.414,0,0.75,0.336,0.75,0.75
		V25.489z"/>
	<g>
		<linearGradient id="XMLID_3_" gradientUnits="userSpaceOnUse" x1="45.4688" y1="5.3496" x2="45.4688" y2="10.2441">
			<stop  offset="0" style="stop-color:#D1AE6C"/>
			<stop  offset="1" style="stop-color:#B4955B"/>
		</linearGradient>
		<polygon id="XMLID_940_" fill="url(#XMLID_3_)" points="40.456,5.35 38.059,10.244 52.879,10.244 50.481,5.35 		"/>
		<linearGradient id="XMLID_4_" gradientUnits="userSpaceOnUse" x1="45.4688" y1="6.187101e-007" x2="45.4688" y2="3.8496">
			<stop  offset="0" style="stop-color:#D1AE6C"/>
			<stop  offset="1" style="stop-color:#B4955B"/>
		</linearGradient>
		<rect id="XMLID_941_" x="40.738" y="0" fill="url(#XMLID_4_)" width="9.461" height="3.85"/>
		<linearGradient id="XMLID_5_" gradientUnits="userSpaceOnUse" x1="8.6455" y1="32.8838" x2="8.6455" y2="47.1729">
			<stop  offset="0" style="stop-color:#D1AE6C"/>
			<stop  offset="1" style="stop-color:#B4955B"/>
		</linearGradient>
		<path id="XMLID_945_" fill="url(#XMLID_5_)" d="M0,47.173h17.291V32.884H0V47.173z M6.688,34.255h3.914
			c0.414,0,0.75,0.336,0.75,0.75c0,0.414-0.336,0.75-0.75,0.75H6.688c-0.414,0-0.75-0.336-0.75-0.75
			C5.938,34.591,6.274,34.255,6.688,34.255z"/>
		<linearGradient id="XMLID_6_" gradientUnits="userSpaceOnUse" x1="8.6455" y1="27.5332" x2="8.6455" y2="31.3838">
			<stop  offset="0" style="stop-color:#D1AE6C"/>
			<stop  offset="1" style="stop-color:#B4955B"/>
		</linearGradient>
		<rect id="XMLID_946_" x="0" y="27.533" fill="url(#XMLID_6_)" width="17.291" height="3.851"/>
		<linearGradient id="XMLID_7_" gradientUnits="userSpaceOnUse" x1="18.0405" y1="15.7891" x2="18.0405" y2="17.291">
			<stop  offset="0" style="stop-color:#D1AE6C"/>
			<stop  offset="1" style="stop-color:#B4955B"/>
		</linearGradient>
		<path id="XMLID_948_" fill="url(#XMLID_7_)" d="M0.138,15.789c0.311,0.872,1.136,1.502,2.113,1.502H33.83
			c0.977,0,1.803-0.63,2.113-1.502H18.041H0.138z"/>
		<linearGradient id="XMLID_8_" gradientUnits="userSpaceOnUse" x1="8.6455" y1="6.185346e-007" x2="8.6455" y2="14.2891">
			<stop  offset="0" style="stop-color:#D1AE6C"/>
			<stop  offset="1" style="stop-color:#B4955B"/>
		</linearGradient>
		<path id="XMLID_955_" fill="url(#XMLID_8_)" d="M17.291,0H0v14.289h17.291V0z M10.603,12.919H6.688c-0.414,0-0.75-0.336-0.75-0.75
			c0-0.414,0.336-0.75,0.75-0.75h3.914c0.414,0,0.75,0.336,0.75,0.75C11.353,12.583,11.017,12.919,10.603,12.919z"/>
		<linearGradient id="XMLID_9_" gradientUnits="userSpaceOnUse" x1="27.436" y1="6.185337e-007" x2="27.436" y2="14.2891">
			<stop  offset="0" style="stop-color:#D1AE6C"/>
			<stop  offset="1" style="stop-color:#B4955B"/>
		</linearGradient>
		<path id="XMLID_958_" fill="url(#XMLID_9_)" d="M18.791,14.289h17.29V0h-17.29V14.289z M25.479,11.419h3.915
			c0.414,0,0.75,0.336,0.75,0.75c0,0.414-0.336,0.75-0.75,0.75h-3.915c-0.414,0-0.75-0.336-0.75-0.75
			C24.729,11.755,25.064,11.419,25.479,11.419z"/>
		<linearGradient id="XMLID_10_" gradientUnits="userSpaceOnUse" x1="27.436" y1="32.8838" x2="27.436" y2="47.1729">
			<stop  offset="0" style="stop-color:#D1AE6C"/>
			<stop  offset="1" style="stop-color:#B4955B"/>
		</linearGradient>
		<path id="XMLID_1029_" fill="url(#XMLID_10_)" d="M18.791,47.173h17.29V32.884h-17.29V47.173z M25.479,34.255h3.915
			c0.414,0,0.75,0.336,0.75,0.75c0,0.414-0.336,0.75-0.75,0.75h-3.915c-0.414,0-0.75-0.336-0.75-0.75
			C24.729,34.591,25.064,34.255,25.479,34.255z"/>
		<linearGradient id="XMLID_11_" gradientUnits="userSpaceOnUse" x1="45.4687" y1="27.5332" x2="45.4687" y2="31.3838">
			<stop  offset="0" style="stop-color:#D1AE6C"/>
			<stop  offset="1" style="stop-color:#B4955B"/>
		</linearGradient>
		<polygon id="XMLID_1039_" fill="url(#XMLID_11_)" points="42.112,27.533 37.606,27.533 37.606,31.384 53.331,31.384 
			53.331,27.533 48.702,27.533 		"/>
		<linearGradient id="XMLID_12_" gradientUnits="userSpaceOnUse" x1="27.436" y1="27.5332" x2="27.436" y2="31.3838">
			<stop  offset="0" style="stop-color:#D1AE6C"/>
			<stop  offset="1" style="stop-color:#B4955B"/>
		</linearGradient>
		<rect id="XMLID_1050_" x="18.791" y="27.533" fill="url(#XMLID_12_)" width="17.29" height="3.851"/>
		<linearGradient id="XMLID_13_" gradientUnits="userSpaceOnUse" x1="45.4687" y1="45.1494" x2="45.4687" y2="47.1729">
			<stop  offset="0" style="stop-color:#D1AE6C"/>
			<stop  offset="1" style="stop-color:#B4955B"/>
		</linearGradient>
		<rect id="XMLID_1051_" x="37.606" y="45.149" fill="url(#XMLID_13_)" width="15.725" height="2.023"/>
		<linearGradient id="XMLID_14_" gradientUnits="userSpaceOnUse" x1="45.4687" y1="32.8838" x2="45.4687" y2="43.6494">
			<stop  offset="0" style="stop-color:#D1AE6C"/>
			<stop  offset="1" style="stop-color:#B4955B"/>
		</linearGradient>
		<path id="XMLID_1054_" fill="url(#XMLID_14_)" d="M37.606,43.649h15.725V32.884H37.606V43.649z M40.641,34.255h9.656
			c0.414,0,0.75,0.336,0.75,0.75c0,0.414-0.336,0.75-0.75,0.75h-9.656c-0.414,0-0.75-0.336-0.75-0.75
			C39.891,34.591,40.227,34.255,40.641,34.255z"/>
	</g>
</g>
</svg>
