<?xml version="1.0" encoding="utf-8"?>
<!-- Generator: Adobe Illustrator 19.1.0, SVG Export Plug-In . SVG Version: 6.00 Build 0)  -->
<svg version="1.1" id="Слой_1" xmlns="http://www.w3.org/2000/svg" xmlns:xlink="http://www.w3.org/1999/xlink" x="0px" y="0px"
	 viewBox="0 0 77.179 47.5" enable-background="new 0 0 77.179 47.5" xml:space="preserve">
<g id="XMLID_564_">
	<g id="XMLID_583_">
		<path id="XMLID_585_" fill="none" stroke="#4C3939" stroke-width="1.5" stroke-miterlimit="10" d="M8.054,18.177V3.963
			c0-1.774,1.439-3.213,3.213-3.213h24.109c1.774,0,3.213,1.438,3.213,3.213v22.691"/>
		<path id="XMLID_584_" fill="none" stroke="#4C3939" stroke-width="1.5" stroke-miterlimit="10" d="M38.59,34.99H9.704
			c-1.822,0-3.299-1.477-3.299-3.299v-1.736c0-1.822,1.477-3.3,3.299-3.3H38.59V34.99z"/>
	</g>
	<path id="XMLID_582_" fill="none" stroke="#4C3939" stroke-width="1.5" stroke-miterlimit="10" d="M10.735,34.99v11.76H4.05
		c-1.822,0-3.3-1.477-3.3-3.3V21.475c0-1.822,1.477-3.3,3.3-3.3h3.386c1.822,0,3.299,1.477,3.299,3.3v5.179"/>
	<g id="XMLID_579_">
		<path id="XMLID_581_" fill="none" stroke="#4C3939" stroke-width="1.5" stroke-miterlimit="10" d="M69.125,18.177V3.963
			c0-1.774-1.438-3.213-3.213-3.213H41.889c-1.822,0-3.3,1.477-3.3,3.299v22.604"/>
		<path id="XMLID_580_" fill="none" stroke="#4C3939" stroke-width="1.5" stroke-miterlimit="10" d="M38.59,34.99h28.885
			c1.822,0,3.299-1.477,3.299-3.299v-1.736c0-1.822-1.477-3.3-3.299-3.3H38.59V34.99z"/>
	</g>
	<path id="XMLID_578_" fill="none" stroke="#4C3939" stroke-width="1.5" stroke-miterlimit="10" d="M66.444,34.99v11.76h6.686
		c1.822,0,3.3-1.477,3.3-3.3V21.475c0-1.822-1.477-3.3-3.3-3.3h-3.386c-1.822,0-3.299,1.477-3.299,3.3v5.179"/>
	
		<line id="XMLID_577_" fill="none" stroke="#4C3939" stroke-width="1.5" stroke-miterlimit="10" x1="10.735" y1="46.75" x2="66.444" y2="46.75"/>
	<g id="XMLID_574_">
		
			<line id="XMLID_576_" fill="none" stroke="#4C3939" stroke-width="1.5" stroke-linecap="round" stroke-miterlimit="10" x1="57.571" y1="11.038" x2="60.784" y2="7.826"/>
		
			<line id="XMLID_575_" fill="none" stroke="#4C3939" stroke-width="1.5" stroke-linecap="round" stroke-miterlimit="10" x1="60.784" y1="11.038" x2="57.571" y2="7.826"/>
	</g>
	<g id="XMLID_571_">
		
			<line id="XMLID_573_" fill="none" stroke="#4C3939" stroke-width="1.5" stroke-linecap="round" stroke-miterlimit="10" x1="46.35" y1="20.405" x2="49.563" y2="17.192"/>
		
			<line id="XMLID_572_" fill="none" stroke="#4C3939" stroke-width="1.5" stroke-linecap="round" stroke-miterlimit="10" x1="49.563" y1="20.405" x2="46.35" y2="17.192"/>
	</g>
	<g id="XMLID_568_">
		
			<line id="XMLID_570_" fill="none" stroke="#4C3939" stroke-width="1.5" stroke-linecap="round" stroke-miterlimit="10" x1="19.608" y1="11.038" x2="16.395" y2="7.826"/>
		
			<line id="XMLID_569_" fill="none" stroke="#4C3939" stroke-width="1.5" stroke-linecap="round" stroke-miterlimit="10" x1="16.395" y1="11.038" x2="19.608" y2="7.826"/>
	</g>
	<g id="XMLID_565_">
		
			<line id="XMLID_567_" fill="none" stroke="#4C3939" stroke-width="1.5" stroke-linecap="round" stroke-miterlimit="10" x1="30.829" y1="20.405" x2="27.616" y2="17.192"/>
		
			<line id="XMLID_566_" fill="none" stroke="#4C3939" stroke-width="1.5" stroke-linecap="round" stroke-miterlimit="10" x1="27.616" y1="20.405" x2="30.829" y2="17.192"/>
	</g>
</g>
</svg>
