<?xml version="1.0" encoding="utf-8"?>
<!-- Generator: Adobe Illustrator 19.1.0, SVG Export Plug-In . SVG Version: 6.00 Build 0)  -->
<svg version="1.1" id="Слой_1" xmlns="http://www.w3.org/2000/svg" xmlns:xlink="http://www.w3.org/1999/xlink" x="0px" y="0px"
	 viewBox="0 0 71 92.316" enable-background="new 0 0 71 92.316" xml:space="preserve">
<g>
	<g>
		<linearGradient id="SVGID_1_" gradientUnits="userSpaceOnUse" x1="35.5" y1="-1.988253e-004" x2="35.5" y2="71.5429">
			<stop  offset="0" style="stop-color:#D1AE6C"/>
			<stop  offset="1" style="stop-color:#B4955B"/>
		</linearGradient>
		<path fill="url(#SVGID_1_)" d="M64.536,71.541c-0.536,0-0.98-0.426-0.998-0.966l-1.353-40.409C62.185,14.094,50.713,2,35.5,2
			S8.816,14.094,8.816,30.132L7.462,70.575c-0.018,0.553-0.509,1.002-1.032,0.966c-0.552-0.019-0.984-0.481-0.966-1.033
			l1.352-40.409C6.816,12.954,19.148,0,35.5,0c16.353,0,28.685,12.954,28.685,30.132l1.352,40.375
			c0.019,0.552-0.414,1.015-0.966,1.033C64.56,71.541,64.548,71.541,64.536,71.541z"/>
	</g>
	<g>
		<linearGradient id="SVGID_2_" gradientUnits="userSpaceOnUse" x1="34.5" y1="86.3277" x2="36.5" y2="86.3277">
			<stop  offset="0" style="stop-color:#D1AE6C"/>
			<stop  offset="1" style="stop-color:#B4955B"/>
		</linearGradient>
		<path fill="url(#SVGID_2_)" d="M35.5,92.316c-0.553,0-1-0.448-1-1v-9.977c0-0.552,0.447-1,1-1c0.553,0,1,0.448,1,1v9.977
			C36.5,91.868,36.053,92.316,35.5,92.316z"/>
	</g>
	<g>
		<linearGradient id="SVGID_3_" gradientUnits="userSpaceOnUse" x1="17.4334" y1="74.4302" x2="53.5695" y2="74.4302">
			<stop  offset="0" style="stop-color:#D1AE6C"/>
			<stop  offset="1" style="stop-color:#B4955B"/>
		</linearGradient>
		<path fill="url(#SVGID_3_)" d="M35.5,82.339c-5.777,0-16.108-10.005-17.986-14.419c-0.217-0.508,0.02-1.096,0.528-1.312
			c0.508-0.217,1.095,0.02,1.312,0.528c1.81,4.253,11.517,13.203,16.146,13.203c4.641,0,14.346-8.954,16.148-13.209
			c0.217-0.509,0.807-0.743,1.311-0.531c0.509,0.216,0.746,0.802,0.531,1.311C51.619,72.327,41.29,82.339,35.5,82.339z"/>
	</g>
	<g>
		<linearGradient id="SVGID_4_" gradientUnits="userSpaceOnUse" x1="8.2525" y1="73.2689" x2="8.2525" y2="88.5316">
			<stop  offset="0" style="stop-color:#D1AE6C"/>
			<stop  offset="1" style="stop-color:#B4955B"/>
		</linearGradient>
		<path fill="url(#SVGID_4_)" d="M14.149,88.532c-0.553,0-1-0.448-1-1v-1.47c0-0.773-0.082-1.546-0.245-2.298
			c-0.116-0.54,0.227-1.072,0.767-1.189c0.54-0.112,1.071,0.227,1.188,0.766c0.192,0.891,0.29,1.806,0.29,2.721v1.47
			C15.149,88.084,14.701,88.532,14.149,88.532z M12.392,80.862c-0.335,0-0.662-0.168-0.851-0.473
			c-0.646-1.042-1.458-1.961-2.413-2.732c-0.43-0.347-0.497-0.977-0.15-1.406c0.346-0.429,0.976-0.497,1.406-0.15
			c1.131,0.913,2.092,2.001,2.856,3.235c0.291,0.47,0.147,1.086-0.323,1.377C12.753,80.814,12.571,80.862,12.392,80.862z
			 M6.28,75.938c-0.11,0-0.223-0.019-0.333-0.058c-1.15-0.406-2.358-0.612-3.591-0.612c-0.553,0-1-0.448-1-1c0-0.552,0.447-1,1-1
			c1.459,0,2.892,0.244,4.257,0.726c0.52,0.183,0.794,0.755,0.61,1.275C7.078,75.681,6.692,75.938,6.28,75.938z"/>
	</g>
	<g>
		<linearGradient id="SVGID_5_" gradientUnits="userSpaceOnUse" x1="62.7476" y1="73.2689" x2="62.7476" y2="88.5316">
			<stop  offset="0" style="stop-color:#D1AE6C"/>
			<stop  offset="1" style="stop-color:#B4955B"/>
		</linearGradient>
		<path fill="url(#SVGID_5_)" d="M56.852,88.532c-0.553,0-1-0.448-1-1v-1.47c0-0.915,0.098-1.831,0.29-2.721
			c0.117-0.54,0.65-0.879,1.189-0.766c0.54,0.117,0.883,0.649,0.767,1.189c-0.163,0.752-0.245,1.525-0.245,2.298v1.47
			C57.852,88.084,57.404,88.532,56.852,88.532z M58.608,80.862c-0.18,0-0.361-0.048-0.525-0.15c-0.47-0.291-0.614-0.907-0.323-1.377
			c0.765-1.234,1.726-2.322,2.856-3.235c0.431-0.347,1.061-0.279,1.406,0.15c0.347,0.43,0.279,1.059-0.15,1.406
			c-0.955,0.771-1.767,1.69-2.413,2.732C59.271,80.694,58.943,80.862,58.608,80.862z M64.72,75.938
			c-0.412,0-0.798-0.257-0.943-0.668c-0.184-0.521,0.09-1.092,0.61-1.275c1.365-0.482,2.798-0.726,4.257-0.726c0.553,0,1,0.448,1,1
			c0,0.552-0.447,1-1,1c-1.232,0-2.44,0.206-3.591,0.612C64.942,75.92,64.83,75.938,64.72,75.938z"/>
	</g>
	<g>
		<linearGradient id="SVGID_6_" gradientUnits="userSpaceOnUse" x1="46.96" y1="38.6014" x2="46.96" y2="54.474">
			<stop  offset="0" style="stop-color:#D1AE6C"/>
			<stop  offset="1" style="stop-color:#B4955B"/>
		</linearGradient>
		<path fill="url(#SVGID_6_)" d="M41.652,54.474h-3.257c-0.553,0-1-0.448-1-1c0-0.552,0.447-1,1-1h3.257
			c7.098,0,12.872-5.775,12.872-12.873c0-0.552,0.447-1,1-1c0.553,0,1,0.448,1,1C56.524,47.802,49.853,54.474,41.652,54.474z"/>
	</g>
	<g>
		<linearGradient id="SVGID_7_" gradientUnits="userSpaceOnUse" x1="35.5" y1="49.5789" x2="35.5" y2="57.369">
			<stop  offset="0" style="stop-color:#D1AE6C"/>
			<stop  offset="1" style="stop-color:#B4955B"/>
		</linearGradient>
		<path fill="url(#SVGID_7_)" d="M35.5,57.369c-2.148,0-3.896-1.747-3.896-3.895c0-2.148,1.747-3.895,3.896-3.895
			c2.148,0,3.896,1.747,3.896,3.895C39.396,55.622,37.648,57.369,35.5,57.369z M35.5,51.579c-1.045,0-1.896,0.85-1.896,1.895
			c0,1.045,0.851,1.895,1.896,1.895c1.045,0,1.896-0.85,1.896-1.895C37.396,52.429,36.545,51.579,35.5,51.579z"/>
	</g>
	<g>
		<linearGradient id="SVGID_8_" gradientUnits="userSpaceOnUse" x1="8.968054e-007" y1="74.2627" x2="71" y2="74.2627">
			<stop  offset="0" style="stop-color:#D1AE6C"/>
			<stop  offset="1" style="stop-color:#B4955B"/>
		</linearGradient>
		<path fill="url(#SVGID_8_)" d="M67.104,92.316H3.896C1.747,92.316,0,90.569,0,88.421v-9.253c0-4.345,2.728-8.303,6.787-9.85
			l0.102-0.032c0.316-0.084,7.786-2.052,10.548-2.561c6.788-1.25,6.359-9.116,6.338-9.45c-0.035-0.551,0.383-1.027,0.934-1.063
			c0.561-0.042,1.027,0.382,1.063,0.934c0.222,3.445-1.158,10.291-7.973,11.546c-2.569,0.473-9.663,2.334-10.347,2.514
			C4.189,72.471,2,75.665,2,79.168v9.253c0,1.045,0.851,1.895,1.895,1.895h63.209c1.045,0,1.896-0.85,1.896-1.895v-9.253
			c0-3.503-2.188-6.696-5.451-7.962c-0.684-0.18-7.777-2.04-10.347-2.514c-6.814-1.255-8.194-8.101-7.973-11.546
			c0.035-0.55,0.486-0.98,1.061-0.933c0.551,0.035,0.969,0.509,0.936,1.06c-0.021,0.334-0.422,8.207,6.338,9.452
			c2.762,0.508,10.231,2.477,10.548,2.561l0.102,0.032c4.06,1.547,6.787,5.505,6.787,9.85v9.253
			C71,90.569,69.253,92.316,67.104,92.316z"/>
	</g>
	<g>
		<linearGradient id="SVGID_9_" gradientUnits="userSpaceOnUse" x1="35.5" y1="20.1517" x2="35.5" y2="63.0384">
			<stop  offset="0" style="stop-color:#D1AE6C"/>
			<stop  offset="1" style="stop-color:#B4955B"/>
		</linearGradient>
		<path fill="url(#SVGID_9_)" d="M35.5,63.038c-2.646,0-7.032-2.073-13.037-6.163c-5.002-3.406-7.987-9.072-7.987-15.157V27.745h1
			c2.22,0,6.785-4.233,9.143-6.9l0.612-0.693l0.74,0.558c0.093,0.07,9.567,7.035,29.554,7.035h1v13.974
			c0,6.084-2.985,11.75-7.987,15.157C42.532,60.965,38.146,63.038,35.5,63.038z M16.476,29.611v12.108
			c0,5.422,2.659,10.47,7.112,13.503c5.508,3.751,9.738,5.816,11.912,5.816c2.174,0,6.404-2.065,11.912-5.816
			c4.453-3.033,7.112-8.081,7.112-13.503V29.74c-17.088-0.191-26.39-5.248-29.002-6.917C23.92,24.546,19.705,28.803,16.476,29.611z"
			/>
	</g>
</g>
</svg>
