<?xml version="1.0" encoding="utf-8"?>
<!-- Generator: Adobe Illustrator 19.1.0, SVG Export Plug-In . SVG Version: 6.00 Build 0)  -->
<svg version="1.1" id="Слой_1" xmlns="http://www.w3.org/2000/svg" xmlns:xlink="http://www.w3.org/1999/xlink" x="0px" y="0px"
	 viewBox="0 0 70.006 50.5" enable-background="new 0 0 70.006 50.5" xml:space="preserve">
<g id="XMLID_586_">
	
		<rect id="XMLID_605_" x="0.75" y="0.75" fill="none" stroke="#4C3939" stroke-width="1.5" stroke-miterlimit="10" width="4.41" height="49"/>
	
		<rect id="XMLID_604_" x="64.846" y="0.75" fill="none" stroke="#4C3939" stroke-width="1.5" stroke-miterlimit="10" width="4.41" height="49"/>
	
		<rect id="XMLID_603_" x="48.091" y="0.75" fill="none" stroke="#4C3939" stroke-width="1.5" stroke-miterlimit="10" width="4.015" height="49"/>
	
		<line id="XMLID_602_" fill="none" stroke="#4C3939" stroke-width="1.5" stroke-miterlimit="10" x1="64.846" y1="19.181" x2="52.106" y2="19.181"/>
	
		<line id="XMLID_601_" fill="none" stroke="#4C3939" stroke-width="1.5" stroke-miterlimit="10" x1="52.106" y1="11.994" x2="64.846" y2="11.994"/>
	
		<line id="XMLID_600_" fill="none" stroke="#4C3939" stroke-width="1.5" stroke-miterlimit="10" x1="5.16" y1="11.994" x2="48.091" y2="11.994"/>
	
		<line id="XMLID_599_" fill="none" stroke="#4C3939" stroke-width="1.5" stroke-miterlimit="10" x1="48.091" y1="19.181" x2="5.16" y2="19.181"/>
	
		<line id="XMLID_598_" fill="none" stroke="#4C3939" stroke-width="1.5" stroke-miterlimit="10" x1="52.106" y1="34.423" x2="64.846" y2="34.423"/>
	
		<line id="XMLID_597_" fill="none" stroke="#4C3939" stroke-width="1.5" stroke-miterlimit="10" x1="5.16" y1="34.423" x2="48.091" y2="34.423"/>
	
		<line id="XMLID_596_" fill="none" stroke="#4C3939" stroke-width="1.5" stroke-miterlimit="10" x1="48.091" y1="41.61" x2="5.16" y2="41.61"/>
	
		<line id="XMLID_595_" fill="none" stroke="#4C3939" stroke-width="1.5" stroke-miterlimit="10" x1="52.106" y1="9.223" x2="64.846" y2="9.223"/>
	
		<line id="XMLID_594_" fill="none" stroke="#4C3939" stroke-width="1.5" stroke-miterlimit="10" x1="52.106" y1="23.923" x2="64.846" y2="23.923"/>
	
		<line id="XMLID_593_" fill="none" stroke="#4C3939" stroke-width="1.5" stroke-miterlimit="10" x1="52.106" y1="26.863" x2="64.846" y2="26.863"/>
	
		<line id="XMLID_592_" fill="none" stroke="#4C3939" stroke-width="1.5" stroke-miterlimit="10" x1="52.106" y1="38.623" x2="64.846" y2="38.623"/>
	
		<line id="XMLID_591_" fill="none" stroke="#4C3939" stroke-width="1.5" stroke-miterlimit="10" x1="52.106" y1="41.563" x2="64.846" y2="41.563"/>
	<path id="XMLID_590_" fill="none" stroke="#4C3939" stroke-width="1.5" stroke-miterlimit="10" d="M13.858,7.625h-2.287
		c-2.413,0-4.369,1.956-4.369,4.369l0,0h5.512h5.513l0,0C18.227,9.581,16.271,7.625,13.858,7.625z"/>
	<path id="XMLID_589_" fill="none" stroke="#4C3939" stroke-width="1.5" stroke-miterlimit="10" d="M13.858,30.054h-2.287
		c-2.413,0-4.369,1.956-4.369,4.369l0,0h11.025l0,0C18.227,32.01,16.271,30.054,13.858,30.054z"/>
	<path id="XMLID_588_" fill="none" stroke="#4C3939" stroke-width="1.5" stroke-miterlimit="10" d="M5.16,3.866h15.306
		c4.489,0,8.128,3.639,8.128,8.128l0,0"/>
	<path id="XMLID_587_" fill="none" stroke="#4C3939" stroke-width="1.5" stroke-miterlimit="10" d="M5.16,26.296h15.306
		c4.489,0,8.128,3.639,8.128,8.128l0,0"/>
</g>
</svg>
