<?xml version="1.0" encoding="utf-8"?>
<!-- Generator: Adobe Illustrator 19.1.0, SVG Export Plug-In . SVG Version: 6.00 Build 0)  -->
<svg version="1.1" id="Слой_1" xmlns="http://www.w3.org/2000/svg" xmlns:xlink="http://www.w3.org/1999/xlink" x="0px" y="0px"
	 viewBox="0 0 92 88.921" enable-background="new 0 0 92 88.921" xml:space="preserve">
<g>
	<g>
		<linearGradient id="SVGID_1_" gradientUnits="userSpaceOnUse" x1="37.1592" y1="-1.040053e-004" x2="37.1592" y2="20.1787">
			<stop  offset="0" style="stop-color:#D1AE6C"/>
			<stop  offset="1" style="stop-color:#B4955B"/>
		</linearGradient>
		<path fill="url(#SVGID_1_)" d="M12.126,20.179c-0.553,0-1-0.448-1-1V0h52.066v6.96c0,0.552-0.447,1-1,1c-0.553,0-1-0.448-1-1V2
			H13.126v17.179C13.126,19.731,12.679,20.179,12.126,20.179z"/>
	</g>
	<g>
		<linearGradient id="SVGID_2_" gradientUnits="userSpaceOnUse" x1="49.0791" y1="5.9604" x2="49.0791" y2="20.1791">
			<stop  offset="0" style="stop-color:#D1AE6C"/>
			<stop  offset="1" style="stop-color:#B4955B"/>
		</linearGradient>
		<path fill="url(#SVGID_2_)" d="M74.112,20.179c-0.553,0-1-0.448-1-1V7.96H25.046v11.219c0,0.552-0.447,1-1,1s-1-0.448-1-1V5.96
			h52.066v13.219C75.112,19.731,74.665,20.179,74.112,20.179z"/>
	</g>
	<g>
		<linearGradient id="SVGID_3_" gradientUnits="userSpaceOnUse" x1="42.9204" y1="27.5165" x2="42.9204" y2="29.5165">
			<stop  offset="0" style="stop-color:#D1AE6C"/>
			<stop  offset="1" style="stop-color:#B4955B"/>
		</linearGradient>
		<path fill="url(#SVGID_3_)" d="M84.841,29.517h-4c-0.553,0-1-0.448-1-1c0-0.552,0.447-1,1-1h4c0.553,0,1,0.448,1,1
			C85.841,29.069,85.394,29.517,84.841,29.517z M76.841,29.517h-4c-0.553,0-1-0.448-1-1c0-0.552,0.447-1,1-1h4c0.553,0,1,0.448,1,1
			C77.841,29.069,77.394,29.517,76.841,29.517z M68.841,29.517h-4c-0.553,0-1-0.448-1-1c0-0.552,0.447-1,1-1h4c0.553,0,1,0.448,1,1
			C69.841,29.069,69.394,29.517,68.841,29.517z M60.841,29.517h-4c-0.553,0-1-0.448-1-1c0-0.552,0.447-1,1-1h4c0.553,0,1,0.448,1,1
			C61.841,29.069,61.394,29.517,60.841,29.517z M52.841,29.517h-4c-0.553,0-1-0.448-1-1c0-0.552,0.447-1,1-1h4c0.553,0,1,0.448,1,1
			C53.841,29.069,53.394,29.517,52.841,29.517z M44.841,29.517h-4c-0.553,0-1-0.448-1-1c0-0.552,0.447-1,1-1h4c0.553,0,1,0.448,1,1
			C45.841,29.069,45.394,29.517,44.841,29.517z M36.841,29.517h-4c-0.553,0-1-0.448-1-1c0-0.552,0.447-1,1-1h4c0.553,0,1,0.448,1,1
			C37.841,29.069,37.394,29.517,36.841,29.517z M28.841,29.517h-4c-0.553,0-1-0.448-1-1c0-0.552,0.447-1,1-1h4c0.553,0,1,0.448,1,1
			C29.841,29.069,29.394,29.517,28.841,29.517z M20.841,29.517h-4c-0.553,0-1-0.448-1-1c0-0.552,0.447-1,1-1h4c0.553,0,1,0.448,1,1
			C21.841,29.069,21.394,29.517,20.841,29.517z M12.841,29.517h-4c-0.553,0-1-0.448-1-1c0-0.552,0.447-1,1-1h4c0.553,0,1,0.448,1,1
			C13.841,29.069,13.394,29.517,12.841,29.517z M4.841,29.517H1c-0.553,0-1-0.448-1-1c0-0.552,0.447-1,1-1h3.841
			c0.553,0,1,0.448,1,1C5.841,29.069,5.394,29.517,4.841,29.517z"/>
	</g>
	<g>
		<linearGradient id="SVGID_4_" gradientUnits="userSpaceOnUse" x1="42.9204" y1="77.583" x2="42.9204" y2="79.583">
			<stop  offset="0" style="stop-color:#D1AE6C"/>
			<stop  offset="1" style="stop-color:#B4955B"/>
		</linearGradient>
		<path fill="url(#SVGID_4_)" d="M84.841,79.583h-4c-0.553,0-1-0.448-1-1c0-0.552,0.447-1,1-1h4c0.553,0,1,0.448,1,1
			C85.841,79.135,85.394,79.583,84.841,79.583z M76.841,79.583h-4c-0.553,0-1-0.448-1-1c0-0.552,0.447-1,1-1h4c0.553,0,1,0.448,1,1
			C77.841,79.135,77.394,79.583,76.841,79.583z M68.841,79.583h-4c-0.553,0-1-0.448-1-1c0-0.552,0.447-1,1-1h4c0.553,0,1,0.448,1,1
			C69.841,79.135,69.394,79.583,68.841,79.583z M60.841,79.583h-4c-0.553,0-1-0.448-1-1c0-0.552,0.447-1,1-1h4c0.553,0,1,0.448,1,1
			C61.841,79.135,61.394,79.583,60.841,79.583z M52.841,79.583h-4c-0.553,0-1-0.448-1-1c0-0.552,0.447-1,1-1h4c0.553,0,1,0.448,1,1
			C53.841,79.135,53.394,79.583,52.841,79.583z M44.841,79.583h-4c-0.553,0-1-0.448-1-1c0-0.552,0.447-1,1-1h4c0.553,0,1,0.448,1,1
			C45.841,79.135,45.394,79.583,44.841,79.583z M36.841,79.583h-4c-0.553,0-1-0.448-1-1c0-0.552,0.447-1,1-1h4c0.553,0,1,0.448,1,1
			C37.841,79.135,37.394,79.583,36.841,79.583z M28.841,79.583h-4c-0.553,0-1-0.448-1-1c0-0.552,0.447-1,1-1h4c0.553,0,1,0.448,1,1
			C29.841,79.135,29.394,79.583,28.841,79.583z M20.841,79.583h-4c-0.553,0-1-0.448-1-1c0-0.552,0.447-1,1-1h4c0.553,0,1,0.448,1,1
			C21.841,79.135,21.394,79.583,20.841,79.583z M12.841,79.583h-4c-0.553,0-1-0.448-1-1c0-0.552,0.447-1,1-1h4c0.553,0,1,0.448,1,1
			C13.841,79.135,13.394,79.583,12.841,79.583z M4.841,79.583H1c-0.553,0-1-0.448-1-1c0-0.552,0.447-1,1-1h3.841
			c0.553,0,1,0.448,1,1C5.841,79.135,5.394,79.583,4.841,79.583z"/>
	</g>
	<g>
		<linearGradient id="SVGID_5_" gradientUnits="userSpaceOnUse" x1="42.9204" y1="18.1787" x2="42.9204" y2="88.9204">
			<stop  offset="0" style="stop-color:#D1AE6C"/>
			<stop  offset="1" style="stop-color:#B4955B"/>
		</linearGradient>
		<path fill="url(#SVGID_5_)" d="M84.841,88.92H1c-0.553,0-1-0.448-1-1V19.179c0-0.552,0.447-1,1-1h83.841c0.553,0,1,0.448,1,1
			v21.258c0,0.552-0.447,1-1,1c-0.553,0-1-0.448-1-1V20.179H2V86.92h81.841V66.662c0-0.552,0.447-1,1-1c0.553,0,1,0.448,1,1V87.92
			C85.841,88.473,85.394,88.92,84.841,88.92z"/>
	</g>
	<g>
		<linearGradient id="SVGID_6_" gradientUnits="userSpaceOnUse" x1="74.3109" y1="39.437" x2="74.3109" y2="67.6621">
			<stop  offset="0" style="stop-color:#D1AE6C"/>
			<stop  offset="1" style="stop-color:#B4955B"/>
		</linearGradient>
		<path fill="url(#SVGID_6_)" d="M91,67.662H63.583c-0.393,0-0.748-0.229-0.91-0.586l-5.961-13.112c-0.12-0.263-0.12-0.565,0-0.828
			l5.961-13.113c0.162-0.357,0.518-0.586,0.91-0.586H91c0.553,0,1,0.448,1,1v26.225C92,67.214,91.553,67.662,91,67.662z
			 M64.227,65.662H90V41.437H64.227L58.721,53.55L64.227,65.662z"/>
	</g>
	<g>
		<linearGradient id="SVGID_7_" gradientUnits="userSpaceOnUse" x1="72.2251" y1="47.7812" x2="72.2251" y2="60.1127">
			<stop  offset="0" style="stop-color:#D1AE6C"/>
			<stop  offset="1" style="stop-color:#B4955B"/>
		</linearGradient>
		<path fill="url(#SVGID_7_)" d="M72.226,60.113c-3.4,0-6.166-2.766-6.166-6.166c0-3.4,2.766-6.166,6.166-6.166
			c3.399,0,6.165,2.766,6.165,6.166C78.391,57.347,75.625,60.113,72.226,60.113z M72.226,49.781c-2.297,0-4.166,1.869-4.166,4.166
			c0,2.297,1.869,4.166,4.166,4.166c2.297,0,4.165-1.869,4.165-4.166C76.391,51.65,74.522,49.781,72.226,49.781z"/>
	</g>
</g>
</svg>
