<?xml version="1.0" encoding="utf-8"?>
<!-- Generator: Adobe Illustrator 19.1.0, SVG Export Plug-In . SVG Version: 6.00 Build 0)  -->
<svg version="1.1" id="Слой_1" xmlns="http://www.w3.org/2000/svg" xmlns:xlink="http://www.w3.org/1999/xlink" x="0px" y="0px"
	 viewBox="0 0 57.416 51.5" enable-background="new 0 0 57.416 51.5" xml:space="preserve">
<g>
	<path id="XMLID_498_" fill="none" stroke="#4C3939" stroke-width="1.5" stroke-miterlimit="10" d="M14.397,17.4H11.48
		c-0.897,0-1.624-0.727-1.624-1.624V2.374c0-0.897,0.727-1.624,1.624-1.624h23.999c0.897,0,1.624,0.727,1.624,1.624v13.401
		c0,0.897-0.727,1.624-1.624,1.624h-2.917"/>
	
		<line id="XMLID_497_" fill="none" stroke="#4C3939" stroke-width="1.5" stroke-miterlimit="10" x1="14.076" y1="12.933" x2="9.856" y2="12.933"/>
	
		<line id="XMLID_496_" fill="none" stroke="#4C3939" stroke-width="1.5" stroke-miterlimit="10" x1="37.103" y1="12.933" x2="32.877" y2="12.933"/>
	<path id="XMLID_495_" fill="none" stroke="#4C3939" stroke-width="1.5" stroke-miterlimit="10" d="M27.888,29.566h-8.818
		c-2.096,0-3.84-1.612-4.005-3.701l-0.976-12.369c-0.192-2.428,1.727-4.505,4.163-4.505h10.455c2.436,0,4.355,2.076,4.163,4.505
		l-0.976,12.369C31.729,27.954,29.985,29.566,27.888,29.566z"/>
	<path id="XMLID_494_" fill="none" stroke="#4C3939" stroke-width="1.5" stroke-miterlimit="10" d="M31.747,36.469H15.212v-1.237
		c0-1.709,1.385-3.094,3.094-3.094h10.346c1.709,0,3.095,1.385,3.095,3.094V36.469z"/>
	
		<line id="XMLID_493_" fill="none" stroke="#4C3939" stroke-width="1.5" stroke-miterlimit="10" x1="23.48" y1="36.469" x2="23.48" y2="47.845"/>
	
		<line id="XMLID_492_" fill="none" stroke="#4C3939" stroke-width="1.5" stroke-miterlimit="10" x1="23.48" y1="29.566" x2="23.48" y2="32.137"/>
	<path id="XMLID_490_" fill="none" stroke="#4C3939" stroke-width="1.5" stroke-miterlimit="10" d="M17.794,51.5L17.794,51.5
		c0-2.019,1.636-3.655,3.655-3.655h4.061c2.018,0,3.655,1.636,3.655,3.655l0,0"/>
	<polyline id="XMLID_488_" fill="none" stroke="#4C3939" stroke-width="1.5" stroke-miterlimit="10" points="32.277,21.004 
		56.666,21.004 56.666,24.963 31.965,24.963 	"/>
	<polyline id="XMLID_487_" fill="none" stroke="#4C3939" stroke-width="1.5" stroke-miterlimit="10" points="14.994,24.963 
		0.75,24.963 0.75,21.004 14.682,21.004 	"/>
	
		<rect id="XMLID_486_" x="4.202" y="24.963" fill="none" stroke="#4C3939" stroke-width="1.5" stroke-miterlimit="10" width="3.452" height="25.787"/>
	<g id="XMLID_483_">
		
			<rect id="XMLID_485_" x="38.866" y="24.963" fill="none" stroke="#4C3939" stroke-width="1.5" stroke-miterlimit="10" width="17.8" height="8.596"/>
		
			<line id="XMLID_484_" fill="none" stroke="#4C3939" stroke-width="1.5" stroke-miterlimit="10" x1="46.294" y1="27.755" x2="49.238" y2="27.755"/>
	</g>
	<g id="XMLID_480_">
		
			<rect id="XMLID_482_" x="38.866" y="33.559" fill="none" stroke="#4C3939" stroke-width="1.5" stroke-miterlimit="10" width="17.8" height="8.596"/>
		
			<line id="XMLID_481_" fill="none" stroke="#4C3939" stroke-width="1.5" stroke-miterlimit="10" x1="46.294" y1="36.351" x2="49.238" y2="36.351"/>
	</g>
	<g id="XMLID_477_">
		
			<rect id="XMLID_479_" x="38.866" y="42.154" fill="none" stroke="#4C3939" stroke-width="1.5" stroke-miterlimit="10" width="17.8" height="8.596"/>
		
			<line id="XMLID_478_" fill="none" stroke="#4C3939" stroke-width="1.5" stroke-miterlimit="10" x1="46.294" y1="44.946" x2="49.238" y2="44.946"/>
	</g>
	
		<polygon id="XMLID_475_" fill="none" stroke="#4C3939" stroke-width="1.5" stroke-linecap="round" stroke-linejoin="round" stroke-miterlimit="10" points="
		56.666,21.004 49.718,21.004 42.77,21.004 42.77,17.784 49.718,17.784 56.666,17.784 	"/>
</g>
</svg>
