<?xml version="1.0" encoding="utf-8"?>
<!-- Generator: Adobe Illustrator 19.1.0, SVG Export Plug-In . SVG Version: 6.00 Build 0)  -->
<svg version="1.1" id="Слой_1" xmlns="http://www.w3.org/2000/svg" xmlns:xlink="http://www.w3.org/1999/xlink" x="0px" y="0px"
	 viewBox="0 0 62 63.138" enable-background="new 0 0 62 63.138" xml:space="preserve">
<g>
	<path fill="#FFFFFF" d="M5.385,62.638c-2.694,0-4.885-2.192-4.885-4.886V28.545c0-2.694,2.191-4.885,4.885-4.885h4.823V5.27
		c0-1.273,0.496-2.472,1.396-3.373c0.902-0.901,2.1-1.397,3.374-1.397h32.043c1.274,0,2.472,0.496,3.373,1.397
		c0.901,0.901,1.398,2.099,1.398,3.373v18.39h4.823c2.694,0,4.885,2.191,4.885,4.885v29.207c0,2.694-2.191,4.886-4.885,4.886H5.385z
		"/>
	<g>
		<g>
			<path id="XMLID_28_" fill="none" stroke="#CAC4C4" stroke-width="2" stroke-miterlimit="10" d="M14.271,46.507v15.63H5.385
				C2.963,62.138,1,60.174,1,57.752V28.546c0-2.422,1.963-4.385,4.385-4.385h4.501c2.422,0,4.385,1.963,4.385,4.385v6.883"/>
			<path id="XMLID_27_" fill="none" stroke="#CAC4C4" stroke-width="2" stroke-miterlimit="10" d="M51.292,24.161V5.27
				c0-1.179-0.478-2.247-1.251-3.019C49.268,1.478,48.201,1,47.022,1H14.978c-1.179,0-2.247,0.478-3.019,1.251
				c-0.773,0.773-1.251,1.84-1.251,3.019v18.891"/>
			<path id="XMLID_26_" fill="none" stroke="#CAC4C4" stroke-width="2" stroke-miterlimit="10" d="M49.099,46.508
				c1.211,0,2.307-0.491,3.101-1.284c0.794-0.794,1.285-1.89,1.285-3.101v-2.308c0-1.211-0.491-2.307-1.285-3.101
				c-0.794-0.794-1.89-1.285-3.101-1.285H12.901c-1.211,0-2.307,0.491-3.101,1.285c-0.794,0.794-1.285,1.89-1.285,3.101v2.308
				c0,1.211,0.491,2.307,1.285,3.101c0.794,0.794,1.89,1.284,3.101,1.284h19.195H49.099z"/>
			<path id="XMLID_25_" fill="none" stroke="#CAC4C4" stroke-width="2" stroke-miterlimit="10" d="M47.729,46.507v15.63h8.886
				c2.422,0,4.385-1.963,4.385-4.385V28.546c0-2.422-1.963-4.385-4.385-4.385h-4.501c-2.422,0-4.385,1.963-4.385,4.385v6.883"/>
			<line fill="none" stroke="#CAC4C4" stroke-width="2" stroke-miterlimit="10" x1="14.271" y1="62.138" x2="47.729" y2="62.138"/>
		</g>
		<polyline fill="none" stroke="#D1AE6C" stroke-width="3" stroke-linecap="round" stroke-miterlimit="10" points="23,20.648 
			31,13.375 39,20.648 		"/>
	</g>
</g>
</svg>
