<?xml version="1.0" encoding="utf-8"?>
<!-- Generator: Adobe Illustrator 19.1.0, SVG Export Plug-In . SVG Version: 6.00 Build 0)  -->
<svg version="1.1" id="Слой_1" xmlns="http://www.w3.org/2000/svg" xmlns:xlink="http://www.w3.org/1999/xlink" x="0px" y="0px"
	 viewBox="0 0 118 73.493" enable-background="new 0 0 118 73.493" xml:space="preserve">
<g>
	<g>
		<linearGradient id="SVGID_1_" gradientUnits="userSpaceOnUse" x1="64.5902" y1="10.4817" x2="64.5902" y2="72.4817">
			<stop  offset="0" style="stop-color:#D1AE6C"/>
			<stop  offset="1" style="stop-color:#B4955B"/>
		</linearGradient>
		<path fill="url(#SVGID_1_)" d="M64.59,72.482c-0.552,0-1-0.448-1-1v-4c0-0.552,0.448-1,1-1c0.552,0,1,0.448,1,1v4
			C65.59,72.034,65.142,72.482,64.59,72.482z M64.59,64.482c-0.552,0-1-0.448-1-1v-4c0-0.552,0.448-1,1-1c0.552,0,1,0.448,1,1v4
			C65.59,64.034,65.142,64.482,64.59,64.482z M64.59,56.482c-0.552,0-1-0.448-1-1v-4c0-0.552,0.448-1,1-1c0.552,0,1,0.448,1,1v4
			C65.59,56.034,65.142,56.482,64.59,56.482z M64.59,48.482c-0.552,0-1-0.448-1-1v-4c0-0.552,0.448-1,1-1c0.552,0,1,0.448,1,1v4
			C65.59,48.034,65.142,48.482,64.59,48.482z M64.59,40.482c-0.552,0-1-0.448-1-1v-4c0-0.552,0.448-1,1-1c0.552,0,1,0.448,1,1v4
			C65.59,40.034,65.142,40.482,64.59,40.482z M64.59,32.482c-0.552,0-1-0.448-1-1v-4c0-0.552,0.448-1,1-1c0.552,0,1,0.448,1,1v4
			C65.59,32.034,65.142,32.482,64.59,32.482z M64.59,24.482c-0.552,0-1-0.448-1-1v-4c0-0.552,0.448-1,1-1c0.552,0,1,0.448,1,1v4
			C65.59,24.034,65.142,24.482,64.59,24.482z M64.59,16.482c-0.552,0-1-0.448-1-1v-4c0-0.552,0.448-1,1-1c0.552,0,1,0.448,1,1v4
			C65.59,16.034,65.142,16.482,64.59,16.482z"/>
	</g>
	<g>
		<g>
			<linearGradient id="SVGID_2_" gradientUnits="userSpaceOnUse" x1="28.7191" y1="24.1096" x2="28.7191" y2="41.2307">
				<stop  offset="0" style="stop-color:#D1AE6C"/>
				<stop  offset="1" style="stop-color:#B4955B"/>
			</linearGradient>
			<path fill="url(#SVGID_2_)" d="M28.719,41.231c-3.12,0-5.659-2.539-5.659-5.659v-5.804c0-3.12,2.539-5.659,5.659-5.659
				s5.659,2.539,5.659,5.659v5.804C34.378,38.692,31.839,41.231,28.719,41.231z M28.719,26.11c-2.018,0-3.659,1.641-3.659,3.659
				v5.804c0,2.018,1.641,3.659,3.659,3.659s3.659-1.641,3.659-3.659v-5.804C32.378,27.751,30.737,26.11,28.719,26.11z"/>
		</g>
		<g>
			<linearGradient id="SVGID_3_" gradientUnits="userSpaceOnUse" x1="47.3534" y1="42.7444" x2="47.3534" y2="59.8655">
				<stop  offset="0" style="stop-color:#D1AE6C"/>
				<stop  offset="1" style="stop-color:#B4955B"/>
			</linearGradient>
			<path fill="url(#SVGID_3_)" d="M47.353,59.865c-3.12,0-5.659-2.539-5.659-5.659v-5.804c0-3.12,2.539-5.658,5.659-5.658
				c3.12,0,5.659,2.538,5.659,5.658v5.804C53.012,57.327,50.473,59.865,47.353,59.865z M47.353,44.744
				c-2.018,0-3.659,1.641-3.659,3.658v5.804c0,2.018,1.641,3.659,3.659,3.659c2.017,0,3.659-1.641,3.659-3.659v-5.804
				C51.012,46.385,49.371,44.744,47.353,44.744z"/>
		</g>
	</g>
	<g>
		<linearGradient id="SVGID_4_" gradientUnits="userSpaceOnUse" x1="38.0362" y1="23.1674" x2="38.0362" y2="60.8069">
			<stop  offset="0" style="stop-color:#D1AE6C"/>
			<stop  offset="1" style="stop-color:#B4955B"/>
		</linearGradient>
		<path fill="url(#SVGID_4_)" d="M24.06,60.807c-0.216,0-0.434-0.069-0.617-0.213c-0.435-0.341-0.511-0.969-0.169-1.404
			l27.952-35.639c0.34-0.436,0.969-0.512,1.404-0.169c0.435,0.341,0.511,0.969,0.169,1.404L24.847,60.424
			C24.65,60.675,24.356,60.807,24.06,60.807z"/>
	</g>
	<g>
		<linearGradient id="SVGID_5_" gradientUnits="userSpaceOnUse" x1="90.4459" y1="23.6921" x2="90.4459" y2="25.6921">
			<stop  offset="0" style="stop-color:#D1AE6C"/>
			<stop  offset="1" style="stop-color:#B4955B"/>
		</linearGradient>
		<rect x="76.295" y="23.692" fill="url(#SVGID_5_)" width="28.301" height="2"/>
	</g>
	<g>
		<linearGradient id="SVGID_6_" gradientUnits="userSpaceOnUse" x1="90.4459" y1="35.2224" x2="90.4459" y2="37.2224">
			<stop  offset="0" style="stop-color:#D1AE6C"/>
			<stop  offset="1" style="stop-color:#B4955B"/>
		</linearGradient>
		<rect x="76.295" y="35.222" fill="url(#SVGID_6_)" width="28.301" height="2"/>
	</g>
	<g>
		<linearGradient id="SVGID_7_" gradientUnits="userSpaceOnUse" x1="90.4459" y1="46.7527" x2="90.4459" y2="48.7527">
			<stop  offset="0" style="stop-color:#D1AE6C"/>
			<stop  offset="1" style="stop-color:#B4955B"/>
		</linearGradient>
		<rect x="76.295" y="46.753" fill="url(#SVGID_7_)" width="28.301" height="2"/>
	</g>
	<g>
		<linearGradient id="SVGID_8_" gradientUnits="userSpaceOnUse" x1="90.4459" y1="58.2825" x2="90.4459" y2="60.2825">
			<stop  offset="0" style="stop-color:#D1AE6C"/>
			<stop  offset="1" style="stop-color:#B4955B"/>
		</linearGradient>
		<rect x="76.295" y="58.283" fill="url(#SVGID_8_)" width="28.301" height="2"/>
	</g>
	<g>
		<linearGradient id="SVGID_9_" gradientUnits="userSpaceOnUse" x1="64.2409" y1="10.4817" x2="64.2409" y2="73.4929">
			<stop  offset="0" style="stop-color:#D1AE6C"/>
			<stop  offset="1" style="stop-color:#B4955B"/>
		</linearGradient>
		<path fill="url(#SVGID_9_)" d="M112.807,73.493H15.675c-2.863,0-5.193-2.33-5.193-5.193V15.675c0-2.863,2.33-5.193,5.193-5.193
			h97.133c2.863,0,5.192,2.33,5.192,5.193V68.3C118,71.163,115.671,73.493,112.807,73.493z M15.675,12.482
			c-1.761,0-3.193,1.432-3.193,3.193V68.3c0,1.761,1.432,3.193,3.193,3.193h97.133c1.761,0,3.192-1.432,3.192-3.193V15.675
			c0-1.761-1.432-3.193-3.192-3.193H15.675z"/>
	</g>
	<g>
		<linearGradient id="SVGID_10_" gradientUnits="userSpaceOnUse" x1="53.7592" y1="2.009451e-004" x2="53.7592" y2="63.011">
			<stop  offset="0" style="stop-color:#D1AE6C"/>
			<stop  offset="1" style="stop-color:#B4955B"/>
		</linearGradient>
		<path fill="url(#SVGID_10_)" d="M11.482,63.011H5.193C2.329,63.011,0,60.681,0,57.818V5.193C0,2.329,2.329,0,5.193,0h97.132
			c2.863,0,5.193,2.329,5.193,5.192v6.289h-2V5.193c0-1.76-1.433-3.192-3.193-3.192H5.193C3.432,2,2,3.432,2,5.193v52.625
			c0,1.761,1.432,3.193,3.193,3.193h6.289V63.011z"/>
	</g>
</g>
</svg>
