<?xml version="1.0" encoding="utf-8"?>
<!-- Generator: Adobe Illustrator 19.1.0, SVG Export Plug-In . SVG Version: 6.00 Build 0)  -->
<svg version="1.1" id="Слой_1" xmlns="http://www.w3.org/2000/svg" xmlns:xlink="http://www.w3.org/1999/xlink" x="0px" y="0px"
	 viewBox="0 0 61.721 50.5" enable-background="new 0 0 61.721 50.5" xml:space="preserve">
<g id="XMLID_499_">
	
		<line id="XMLID_508_" fill="none" stroke="#4C3939" stroke-width="1.5" stroke-miterlimit="10" x1="20.823" y1="31.34" x2="0.75" y2="31.34"/>
	
		<line id="XMLID_507_" fill="none" stroke="#4C3939" stroke-width="1.5" stroke-miterlimit="10" x1="0.75" y1="16.045" x2="20.823" y2="16.045"/>
	
		<line id="XMLID_506_" fill="none" stroke="#4C3939" stroke-width="1.5" stroke-miterlimit="10" x1="60.971" y1="31.34" x2="40.897" y2="31.34"/>
	
		<line id="XMLID_505_" fill="none" stroke="#4C3939" stroke-width="1.5" stroke-miterlimit="10" x1="40.897" y1="16.045" x2="60.971" y2="16.045"/>
	<g id="XMLID_501_">
		<polygon id="XMLID_504_" fill="none" stroke="#4C3939" stroke-width="1.5" stroke-miterlimit="10" points="40.897,46.635 
			33.975,46.635 20.823,46.635 20.823,23.692 20.823,0.75 33.975,0.75 40.897,0.75 40.897,23.692 		"/>
		<polygon id="XMLID_503_" fill="none" stroke="#4C3939" stroke-width="1.5" stroke-miterlimit="10" points="20.823,46.635 
			13.902,46.635 0.75,46.635 0.75,23.692 0.75,0.75 13.902,0.75 20.823,0.75 20.823,23.692 		"/>
		<polygon id="XMLID_502_" fill="none" stroke="#4C3939" stroke-width="1.5" stroke-miterlimit="10" points="60.971,46.635 
			54.049,46.635 40.897,46.635 40.897,23.692 40.897,0.75 54.049,0.75 60.971,0.75 60.971,23.692 		"/>
	</g>
	
		<rect id="XMLID_500_" x="0.75" y="46.635" fill="none" stroke="#4C3939" stroke-width="1.5" stroke-miterlimit="10" width="60.221" height="3.115"/>
</g>
</svg>
