<?xml version="1.0" encoding="utf-8"?>
<!-- Generator: Adobe Illustrator 19.1.0, SVG Export Plug-In . SVG Version: 6.00 Build 0)  -->
<svg version="1.1" id="Слой_1" xmlns="http://www.w3.org/2000/svg" xmlns:xlink="http://www.w3.org/1999/xlink" x="0px" y="0px"
	 viewBox="0 0 101 44.945" enable-background="new 0 0 101 44.945" xml:space="preserve">
<g>
	<g>
		<path fill="#CCCCCC" d="M22.282,32.05h-6.053V21.203l-4.71,7.315h-0.755l-4.711-7.315V32.05H0V11.028h6.053l5.088,7.945
			l5.088-7.945h6.053V32.05z"/>
		<path fill="#CCCCCC" d="M50.123,11.028V32.05h-6.307v-1.977c-1.388,1.599-3.446,2.566-6.264,2.566
			c-5.507,0-10.047-4.836-10.047-11.1s4.54-11.1,10.047-11.1c2.818,0,4.877,0.967,6.264,2.566v-1.977H50.123z M43.816,21.539
			c0-3.153-2.102-5.129-5.002-5.129c-2.902,0-5.004,1.976-5.004,5.129s2.102,5.129,5.004,5.129
			C41.714,26.668,43.816,24.692,43.816,21.539z"/>
		<path fill="#CCCCCC" d="M101,32.05h-6.139v-6.055h-1.303l-4.331,6.055H82.08l4.918-6.938c-2.607-1.303-4.078-3.994-4.078-6.601
			c0-3.701,2.734-7.483,7.82-7.483H101V32.05z M89.058,18.721c0,1.303,0.883,2.061,2.229,2.061h3.573v-4.203h-3.573
			C89.941,16.578,89.058,17.377,89.058,18.721z"/>
		<polygon fill="#CCCCCC" points="61.617,8.038 59.502,3.69 67.087,0 74.396,3.709 72.208,8.019 67.041,5.398 		"/>
		<path fill="#CCCCCC" d="M76.829,11.028V32.05h-6.137V21.539L61.694,32.05h-4.624V11.028h6.137v10.511l8.998-10.511H76.829z"/>
	</g>
	<g>
		<polygon fill="#67686B" points="15.603,42.329 14.53,40.589 13.902,40.589 13.902,44.058 14.5,44.058 14.5,41.623 15.531,43.298 
			15.675,43.298 16.706,41.623 16.706,44.058 17.304,44.058 17.304,40.589 16.676,40.589 		"/>
		<path fill="#67686B" d="M21.001,40.51c-1.047,0-1.807,0.763-1.807,1.814c0,1.051,0.774,1.814,1.84,1.814
			c0.655,0,1.21-0.291,1.524-0.799l0.043-0.07l-0.526-0.308l-0.04,0.071c-0.186,0.331-0.549,0.521-0.995,0.521
			c-0.633,0-1.102-0.362-1.221-0.93h2.881l0.007-0.073c0.007-0.069,0.014-0.144,0.014-0.213
			C22.722,41.451,22.118,40.51,21.001,40.51z M19.819,42.038c0.115-0.568,0.579-0.943,1.181-0.943c0.433,0,0.968,0.249,1.096,0.943
			H19.819z"/>
		<path fill="#67686B" d="M26.22,40.887c-0.307,0-0.697,0.09-1.018,0.324c0.147-0.224,0.384-0.384,0.792-0.56
			c0.089-0.039,0.18-0.077,0.269-0.114c0.577-0.239,1.122-0.465,1.22-1.079l0.009-0.055l-0.495-0.286l-0.017,0.118
			c-0.056,0.396-0.375,0.531-0.858,0.735c-0.136,0.058-0.277,0.117-0.427,0.189c-1.119,0.539-1.316,1.137-1.316,2.196
			c0,1.032,0.735,1.781,1.748,1.781c0.986,0,1.701-0.685,1.701-1.629C27.829,41.569,27.152,40.887,26.22,40.887z M27.231,42.509
			c0,0.607-0.454,1.031-1.104,1.031c-0.651,0-1.123-0.45-1.123-1.07c0-0.625,0.588-0.998,1.156-0.998
			C26.801,41.472,27.231,41.889,27.231,42.509z"/>
		<path fill="#67686B" d="M29.863,42.569c0,0.421-0.069,0.689-0.212,0.818c-0.098,0.088-0.238,0.12-0.44,0.1l-0.089-0.009v0.574
			l0.075,0.005c0.047,0.003,0.093,0.005,0.138,0.005c0.315,0,0.558-0.083,0.741-0.254c0.259-0.242,0.385-0.648,0.385-1.241v-1.394
			h1.334v2.884h0.598v-3.469h-2.529V42.569z"/>
		<rect x="34.481" y="40.589" fill="#67686B" width="0.598" height="3.469"/>
		<circle fill="#67686B" cx="34.779" cy="39.651" r="0.398"/>
		<path fill="#67686B" d="M42.489,42.262c0.199-0.166,0.303-0.407,0.303-0.705c0-0.588-0.429-0.967-1.093-0.967h-1.556v3.469h1.688
			c0.68,0,1.119-0.395,1.119-1.007C42.95,42.701,42.784,42.42,42.489,42.262z M41.699,42.018h-0.958v-0.844h0.958
			c0.226,0,0.495,0.071,0.495,0.409C42.194,41.876,42.032,42.018,41.699,42.018z M42.352,43.025c0,0.371-0.284,0.449-0.521,0.449
			h-1.09v-0.871h1.09C42.162,42.603,42.352,42.757,42.352,43.025z"/>
		<polygon fill="#67686B" points="50.642,40.589 49.81,40.589 48.348,41.947 48.348,40.589 47.75,40.589 47.75,44.058 
			48.348,44.058 48.348,42.573 49.888,44.058 50.702,44.058 48.847,42.259 		"/>
		<path fill="#67686B" d="M53.632,40.51c-1.021,0-1.82,0.797-1.82,1.814c0,1.017,0.8,1.814,1.82,1.814s1.82-0.797,1.82-1.814
			C55.452,41.307,54.653,40.51,53.632,40.51z M54.854,42.324c0,0.689-0.537,1.229-1.222,1.229c-0.686,0-1.222-0.54-1.222-1.229
			c0-0.689,0.537-1.229,1.222-1.229C54.318,41.095,54.854,41.635,54.854,42.324z"/>
		<polygon fill="#67686B" points="61.135,40.589 60.389,40.589 59.223,41.924 59.223,40.589 58.625,40.589 58.625,41.924 
			57.459,40.589 56.713,40.589 58.201,42.259 56.651,44.058 57.394,44.058 58.625,42.604 58.625,44.058 59.223,44.058 
			59.223,42.604 60.454,44.058 61.197,44.058 59.646,42.259 		"/>
		<path fill="#67686B" d="M64.203,40.51c-1.047,0-1.807,0.763-1.807,1.814c0,1.051,0.774,1.814,1.84,1.814
			c0.655,0,1.21-0.291,1.524-0.799l0.043-0.07l-0.526-0.308l-0.04,0.071c-0.186,0.331-0.549,0.521-0.995,0.521
			c-0.633,0-1.102-0.362-1.221-0.93h2.881l0.007-0.073c0.007-0.069,0.014-0.144,0.014-0.213
			C65.924,41.451,65.321,40.51,64.203,40.51z M63.021,42.038c0.115-0.568,0.579-0.943,1.181-0.943c0.433,0,0.968,0.249,1.097,0.943
			H63.021z"/>
		<polygon fill="#67686B" points="70.122,42.031 68.378,42.031 68.378,40.589 67.78,40.589 67.78,44.058 68.378,44.058 
			68.378,42.616 70.122,42.616 70.122,44.058 70.72,44.058 70.72,40.589 70.122,40.589 		"/>
		<path fill="#67686B" d="M78.724,40.589h-2.53v1.714c0,0.621-0.118,0.923-0.297,1.17h-0.444v1.471h0.598v-0.886h2.537v0.886h0.598
			v-1.471h-0.463V40.589z M78.126,41.174v2.299h-1.533c0.136-0.32,0.2-0.696,0.2-1.17v-1.13H78.126z"/>
		<circle fill="#67686B" cx="81.309" cy="39.651" r="0.398"/>
		<rect x="81.01" y="40.589" fill="#67686B" width="0.598" height="3.469"/>
		<polygon fill="#67686B" points="86.47,40.589 85.397,42.329 84.324,40.589 83.696,40.589 83.696,44.058 84.294,44.058 
			84.294,41.623 85.326,43.298 85.468,43.298 86.5,41.623 86.5,44.058 87.098,44.058 87.098,40.589 		"/>
	</g>
</g>
</svg>
