<?xml version="1.0" encoding="utf-8"?>
<!-- Generator: Adobe Illustrator 19.1.0, SVG Export Plug-In . SVG Version: 6.00 Build 0)  -->
<svg version="1.1" id="Слой_1" xmlns="http://www.w3.org/2000/svg" xmlns:xlink="http://www.w3.org/1999/xlink" x="0px" y="0px"
	 viewBox="0 0 55.75 50.5" enable-background="new 0 0 55.75 50.5" xml:space="preserve">
<g id="XMLID_509_">
	<polygon id="XMLID_524_" fill="none" stroke="#4C3939" stroke-width="1.5" stroke-miterlimit="10" points="37.659,49.75 
		26.205,49.75 19.205,49.75 12.205,49.75 0.75,49.75 0.75,37.5 0.75,25.25 0.75,13 0.75,0.75 12.205,0.75 19.205,0.75 26.205,0.75 
		37.659,0.75 37.659,13 37.659,25.25 37.659,37.5 	"/>
	<polyline id="XMLID_523_" fill="none" stroke="#4C3939" stroke-width="1.5" stroke-miterlimit="10" points="0.75,36.855 
		19.205,36.855 37.659,36.855 	"/>
	
		<line id="XMLID_522_" fill="none" stroke="#4C3939" stroke-width="1.5" stroke-miterlimit="10" x1="19.205" y1="36.855" x2="19.205" y2="49.75"/>
	
		<line id="XMLID_521_" fill="none" stroke="#4C3939" stroke-width="1.5" stroke-miterlimit="10" x1="15.88" y1="41.368" x2="15.88" y2="44.684"/>
	
		<line id="XMLID_520_" fill="none" stroke="#4C3939" stroke-width="1.5" stroke-miterlimit="10" x1="22.529" y1="41.368" x2="22.529" y2="44.684"/>
	
		<line id="XMLID_519_" fill="none" stroke="#4C3939" stroke-width="1.5" stroke-miterlimit="10" x1="15.88" y1="17.605" x2="15.88" y2="20.921"/>
	<polyline id="XMLID_518_" fill="none" stroke="#4C3939" stroke-width="1.5" stroke-miterlimit="10" points="19.205,0.75 
		19.205,9.776 19.205,18.803 19.205,27.829 19.205,36.855 	"/>
	
		<line id="XMLID_517_" fill="none" stroke="#4C3939" stroke-width="1.5" stroke-miterlimit="10" x1="37.659" y1="9.776" x2="19.205" y2="9.776"/>
	
		<line id="XMLID_516_" fill="none" stroke="#4C3939" stroke-width="1.5" stroke-miterlimit="10" x1="37.659" y1="18.802" x2="19.205" y2="18.802"/>
	
		<line id="XMLID_515_" fill="none" stroke="#4C3939" stroke-width="1.5" stroke-miterlimit="10" x1="37.659" y1="27.828" x2="19.205" y2="27.828"/>
	<g id="XMLID_510_">
		
			<rect id="XMLID_514_" x="37.659" y="0.75" fill="none" stroke="#4C3939" stroke-width="1.5" stroke-miterlimit="10" width="17.341" height="49"/>
		
			<rect id="XMLID_513_" x="41" y="4.091" fill="none" stroke="#4C3939" stroke-width="1.5" stroke-miterlimit="10" width="10.659" height="26.727"/>
		
			<line id="XMLID_512_" fill="none" stroke="#4C3939" stroke-width="1.5" stroke-miterlimit="10" x1="37.659" y1="36.855" x2="55" y2="36.855"/>
		
			<line id="XMLID_511_" fill="none" stroke="#4C3939" stroke-width="1.5" stroke-miterlimit="10" x1="37.659" y1="33.92" x2="55" y2="33.92"/>
	</g>
</g>
</svg>
